<?xml version="1.0" encoding="UTF-8"?>
<!DOCTYPE svg PUBLIC "-//W3C//DTD SVG 1.1//EN" "http://www.w3.org/Graphics/SVG/1.1/DTD/svg11.dtd">
<svg xmlns="http://www.w3.org/2000/svg" version="1.1" width="512px" height="512px" style="shape-rendering:geometricPrecision; text-rendering:geometricPrecision; image-rendering:optimizeQuality; fill-rule:evenodd; clip-rule:evenodd" xmlns:xlink="http://www.w3.org/1999/xlink">
<g><path style="opacity:0.997" fill="#e8e4f5" d="M 319.5,51.5 C 315.089,51.2028 311.089,52.3694 307.5,55C 269.806,76.845 232.139,98.6784 194.5,120.5C 182.996,127.42 171.329,134.086 159.5,140.5C 133.559,124.522 107.226,109.022 80.5,94C 79.7476,93.3292 79.4142,92.4959 79.5,91.5C 122.167,66.5 164.833,41.5 207.5,16.5C 215.311,11.7587 223.311,7.25871 231.5,3C 233.5,2.33333 235.5,2.33333 237.5,3C 265.061,18.941 292.395,35.1076 319.5,51.5 Z"/></g>
<g><path style="opacity:0.988" fill="#d6d0eb" d="M 207.5,16.5 C 164.833,41.5 122.167,66.5 79.5,91.5C 77.0313,92.5686 74.6979,93.9019 72.5,95.5C 72.5858,94.5041 72.2524,93.6708 71.5,93C 60.1071,86.9777 49.1071,80.4777 38.5,73.5C 70.477,54.5075 102.81,36.0075 135.5,18C 159.448,16.5398 183.448,16.0398 207.5,16.5 Z"/></g>
<g><path style="opacity:1" fill="#7561bc" d="M 314.5,110.5 C 314.5,128.5 314.5,146.5 314.5,164.5C 257.331,164.832 200.331,164.499 143.5,163.5C 167.002,149.248 190.668,135.248 214.5,121.5C 243.275,105.276 271.942,88.7763 300.5,72C 306.081,67.9552 310.581,68.7885 314,74.5C 314.5,86.4954 314.667,98.4954 314.5,110.5 Z"/></g>
<g><path style="opacity:0.983" fill="#f1eff8" d="M 319.5,51.5 C 321.888,52.2187 323.388,53.8854 324,56.5C 324.5,78.1641 324.667,99.8308 324.5,121.5C 321.5,121.5 318.5,121.5 315.5,121.5C 315.815,117.629 315.482,113.962 314.5,110.5C 314.667,98.4954 314.5,86.4954 314,74.5C 310.581,68.7885 306.081,67.9552 300.5,72C 271.942,88.7763 243.275,105.276 214.5,121.5C 207.646,121.824 200.979,121.491 194.5,120.5C 232.139,98.6784 269.806,76.845 307.5,55C 311.089,52.3694 315.089,51.2028 319.5,51.5 Z"/></g>
<g><path style="opacity:0.989" fill="#cac0eb" d="M 38.5,73.5 C 49.1071,80.4777 60.1071,86.9777 71.5,93C 72.2524,93.6708 72.5858,94.5041 72.5,95.5C 71.8333,95.5 71.5,95.8333 71.5,96.5C 69.5,97.1667 67.5,97.8333 65.5,98.5C 57.062,93.1077 48.3954,87.941 39.5,83C 37.2641,80.6566 34.9308,78.49 32.5,76.5C 34.5,75.5 36.5,74.5 38.5,73.5 Z"/></g>
<g><path style="opacity:0.991" fill="#c0b4eb" d="M 32.5,76.5 C 34.9308,78.49 37.2641,80.6566 39.5,83C 48.3954,87.941 57.062,93.1077 65.5,98.5C 64.5637,99.9744 63.2303,100.974 61.5,101.5C 60.5,102.167 59.5,102.833 58.5,103.5C 58.5858,102.504 58.2524,101.671 57.5,101C 47.1667,95.1667 36.8333,89.3333 26.5,83.5C 25.6143,82.675 25.281,81.675 25.5,80.5C 27.9962,79.4196 30.3295,78.0862 32.5,76.5 Z"/></g>
<g><path style="opacity:0.998" fill="#b4a5eb" d="M 25.5,80.5 C 25.281,81.675 25.6143,82.675 26.5,83.5C 36.8333,89.3333 47.1667,95.1667 57.5,101C 58.2524,101.671 58.5858,102.504 58.5,103.5C 57.2905,103.932 56.2905,104.599 55.5,105.5C 54.1667,106.167 52.8333,106.833 51.5,107.5C 41.8969,101.692 32.2302,95.8591 22.5,90C 20.0912,88.2932 17.4245,87.4598 14.5,87.5C 17.961,84.9308 21.6277,82.5974 25.5,80.5 Z"/></g>
<g><path style="opacity:0.997" fill="#a996eb" d="M 14.5,87.5 C 17.4245,87.4598 20.0912,88.2932 22.5,90C 32.2302,95.8591 41.8969,101.692 51.5,107.5C 51.1667,108.167 50.8333,108.833 50.5,109.5C 47.0031,113.148 44.5031,117.481 43,122.5C 42.8328,180.001 42.3328,237.335 41.5,294.5C 31.4813,284.981 21.648,275.314 12,265.5C 5.88414,256.943 1.71747,247.61 -0.5,237.5C -0.5,194.167 -0.5,150.833 -0.5,107.5C 2.06858,99.0379 7.06858,92.3713 14.5,87.5 Z"/></g>
<g><path style="opacity:1" fill="#e2ddf4" d="M 79.5,91.5 C 79.4142,92.4959 79.7476,93.3292 80.5,94C 107.226,109.022 133.559,124.522 159.5,140.5C 157.302,142.098 154.969,143.431 152.5,144.5C 125.665,128.248 98.665,112.248 71.5,96.5C 71.5,95.8333 71.8333,95.5 72.5,95.5C 74.6979,93.9019 77.0313,92.5686 79.5,91.5 Z"/></g>
<g><path style="opacity:1" fill="#dad3f1" d="M 71.5,96.5 C 98.665,112.248 125.665,128.248 152.5,144.5C 149.202,146.485 145.869,148.485 142.5,150.5C 116.559,134.522 90.2256,119.022 63.5,104C 62.6195,103.292 61.9528,102.458 61.5,101.5C 63.2303,100.974 64.5637,99.9744 65.5,98.5C 67.5,97.8333 69.5,97.1667 71.5,96.5 Z"/></g>
<g><path style="opacity:1" fill="#d3caef" d="M 61.5,101.5 C 61.9528,102.458 62.6195,103.292 63.5,104C 90.2256,119.022 116.559,134.522 142.5,150.5C 140.483,151.529 138.483,152.529 136.5,153.5C 109.665,137.248 82.665,121.248 55.5,105.5C 56.2905,104.599 57.2905,103.932 58.5,103.5C 59.5,102.833 60.5,102.167 61.5,101.5 Z"/></g>
<g><path style="opacity:1" fill="#ccc2ed" d="M 55.5,105.5 C 82.665,121.248 109.665,137.248 136.5,153.5C 134.5,155.5 132.5,157.5 130.5,159.5C 129.972,158.279 129.305,157.113 128.5,156C 102.996,141.08 77.3295,126.414 51.5,112C 50.7476,111.329 50.4142,110.496 50.5,109.5C 50.8333,108.833 51.1667,108.167 51.5,107.5C 52.8333,106.833 54.1667,106.167 55.5,105.5 Z"/></g>
<g><path style="opacity:0.999" fill="#c5baea" d="M 50.5,109.5 C 50.4142,110.496 50.7476,111.329 51.5,112C 77.3295,126.414 102.996,141.08 128.5,156C 129.305,157.113 129.972,158.279 130.5,159.5C 128.278,163.277 126.611,167.277 125.5,171.5C 124.335,237.332 124.168,303.332 125,369.5C 125.655,371.628 126.489,373.628 127.5,375.5C 122.666,372.248 117.666,369.248 112.5,366.5C 98.1709,357.333 83.5043,348.666 68.5,340.5C 60.1108,335.888 51.9441,330.888 44,325.5C 42.9562,323.285 42.2895,320.952 42,318.5C 41.5003,310.507 41.3336,302.507 41.5,294.5C 42.3328,237.335 42.8328,180.001 43,122.5C 44.5031,117.481 47.0031,113.148 50.5,109.5 Z"/></g>
<g><path style="opacity:1" fill="#ebe8f5" d="M 194.5,120.5 C 200.979,121.491 207.646,121.824 214.5,121.5C 190.668,135.248 167.002,149.248 143.5,163.5C 139.287,167.257 136.62,171.924 135.5,177.5C 134.699,179.042 134.366,180.708 134.5,182.5C 133.504,198.325 133.17,214.325 133.5,230.5C 130.833,230.5 128.167,230.5 125.5,230.5C 125.5,210.833 125.5,191.167 125.5,171.5C 126.611,167.277 128.278,163.277 130.5,159.5C 132.5,157.5 134.5,155.5 136.5,153.5C 138.483,152.529 140.483,151.529 142.5,150.5C 145.869,148.485 149.202,146.485 152.5,144.5C 154.969,143.431 157.302,142.098 159.5,140.5C 171.329,134.086 182.996,127.42 194.5,120.5 Z"/></g>
<g><path style="opacity:1" fill="#6f5cb2" d="M 143.5,163.5 C 200.331,164.499 257.331,164.832 314.5,164.5C 314.5,168.833 314.5,173.167 314.5,177.5C 254.833,177.5 195.167,177.5 135.5,177.5C 136.62,171.924 139.287,167.257 143.5,163.5 Z"/></g>
<g><path style="opacity:0.976" fill="#eae7f4" d="M 314.5,110.5 C 315.482,113.962 315.815,117.629 315.5,121.5C 318.5,121.5 321.5,121.5 324.5,121.5C 324.5,157.833 324.5,194.167 324.5,230.5C 323.539,228.735 323.205,226.735 323.5,224.5C 320.287,224.81 317.287,224.477 314.5,223.5C 314.5,219.167 314.5,214.833 314.5,210.5C 314.5,206.833 314.5,203.167 314.5,199.5C 314.5,195.833 314.5,192.167 314.5,188.5C 314.5,184.833 314.5,181.167 314.5,177.5C 314.5,173.167 314.5,168.833 314.5,164.5C 314.5,146.5 314.5,128.5 314.5,110.5 Z"/></g>
<g><path style="opacity:1" fill="#6a58aa" d="M 135.5,177.5 C 195.167,177.5 254.833,177.5 314.5,177.5C 314.5,181.167 314.5,184.833 314.5,188.5C 254.5,188.5 194.5,188.5 134.5,188.5C 134.5,186.5 134.5,184.5 134.5,182.5C 134.366,180.708 134.699,179.042 135.5,177.5 Z"/></g>
<g><path style="opacity:1" fill="#6755a5" d="M 134.5,188.5 C 194.5,188.5 254.5,188.5 314.5,188.5C 314.5,192.167 314.5,195.833 314.5,199.5C 254.5,199.5 194.5,199.5 134.5,199.5C 134.5,195.833 134.5,192.167 134.5,188.5 Z"/></g>
<g><path style="opacity:1" fill="#63529e" d="M 134.5,199.5 C 194.5,199.5 254.5,199.5 314.5,199.5C 314.5,203.167 314.5,206.833 314.5,210.5C 254.5,210.5 194.5,210.5 134.5,210.5C 134.5,206.833 134.5,203.167 134.5,199.5 Z"/></g>
<g><path style="opacity:1" fill="#5f4f98" d="M 134.5,210.5 C 194.5,210.5 254.5,210.5 314.5,210.5C 314.5,214.833 314.5,219.167 314.5,223.5C 314.167,223.5 313.833,223.5 313.5,223.5C 253.833,223.5 194.167,223.5 134.5,223.5C 134.5,219.167 134.5,214.833 134.5,210.5 Z"/></g>
<g><path style="opacity:1" fill="#5b4c92" d="M 134.5,223.5 C 194.167,223.5 253.833,223.5 313.5,223.5C 313.23,227.358 311.897,230.691 309.5,233.5C 251.167,233.5 192.833,233.5 134.5,233.5C 134.5,230.167 134.5,226.833 134.5,223.5 Z"/></g>
<g><path style="opacity:0.877" fill="#c5baeb" d="M 418.5,265.5 C 417.415,267.587 415.749,268.92 413.5,269.5C 397.364,260.598 381.364,251.431 365.5,242C 357.415,238.298 349.081,237.632 340.5,240C 335.013,242.577 329.679,245.41 324.5,248.5C 324.5,245.833 324.5,243.167 324.5,240.5C 330.351,236.935 336.684,234.435 343.5,233C 351.776,231.829 359.776,232.829 367.5,236C 384.527,245.845 401.527,255.678 418.5,265.5 Z"/></g>
<g><path style="opacity:1" fill="#58498d" d="M 134.5,233.5 C 192.833,233.5 251.167,233.5 309.5,233.5C 306.402,239.26 301.735,243.26 295.5,245.5C 242.003,244.501 188.336,244.168 134.5,244.5C 134.5,240.833 134.5,237.167 134.5,233.5 Z"/></g>
<g><path style="opacity:1" fill="#544686" d="M 134.5,244.5 C 188.336,244.168 242.003,244.501 295.5,245.5C 287.996,250.087 280.329,254.42 272.5,258.5C 226.67,257.501 180.67,257.168 134.5,257.5C 134.5,253.167 134.5,248.833 134.5,244.5 Z"/></g>
<g><path style="opacity:0.976" fill="#e7e3f5" d="M 511.5,279.5 C 511.5,283.167 511.5,286.833 511.5,290.5C 509.549,293.786 507.215,296.786 504.5,299.5C 499.841,297.836 495.175,296.169 490.5,294.5C 491.09,293.201 492.09,292.368 493.5,292C 491.189,292.155 488.856,292.155 486.5,292C 479.609,283.433 471.276,276.767 461.5,272C 449.4,270.076 437.733,266.743 426.5,262C 428.087,261.138 429.754,260.471 431.5,260C 442.847,258.577 454.18,258.244 465.5,259C 457.721,256.339 449.721,255.839 441.5,257.5C 440.167,257.333 438.833,257.167 437.5,257C 436.944,256.617 436.611,256.117 436.5,255.5C 454.192,251.334 471.859,251.501 489.5,256C 500.17,260.833 507.503,268.666 511.5,279.5 Z"/></g>
<g><path style="opacity:1" fill="#4e417d" d="M 134.5,257.5 C 180.67,257.168 226.67,257.501 272.5,258.5C 259.833,265.833 247.167,273.167 234.5,280.5C 201.338,279.502 168.004,279.168 134.5,279.5C 134.5,272.167 134.5,264.833 134.5,257.5 Z"/></g>
<g><path style="opacity:0.993" fill="#dbd5f1" d="M 436.5,255.5 C 436.611,256.117 436.944,256.617 437.5,257C 438.833,257.167 440.167,257.333 441.5,257.5C 449.721,255.839 457.721,256.339 465.5,259C 454.18,258.244 442.847,258.577 431.5,260C 429.754,260.471 428.087,261.138 426.5,262C 437.733,266.743 449.4,270.076 461.5,272C 471.276,276.767 479.609,283.433 486.5,292C 488.856,292.155 491.189,292.155 493.5,292C 492.09,292.368 491.09,293.201 490.5,294.5C 495.175,296.169 499.841,297.836 504.5,299.5C 502.909,301.633 500.909,303.299 498.5,304.5C 491.582,301.857 484.582,299.19 477.5,296.5C 474.278,286.784 467.611,280.617 457.5,278C 445.653,276.062 433.82,276.228 422,278.5C 419.578,278.25 417.411,277.416 415.5,276C 416.833,275.333 418.167,274.667 419.5,274C 416.1,273.847 412.767,274.347 409.5,275.5C 410.441,273.228 411.774,271.228 413.5,269.5C 415.749,268.92 417.415,267.587 418.5,265.5C 422.357,263.572 425.357,260.739 427.5,257C 430.392,255.072 433.392,254.572 436.5,255.5 Z"/></g>
<g><path style="opacity:0.997" fill="#e2def0" d="M 313.5,223.5 C 313.833,223.5 314.167,223.5 314.5,223.5C 317.287,224.477 320.287,224.81 323.5,224.5C 323.205,226.735 323.539,228.735 324.5,230.5C 324.5,233.833 324.5,237.167 324.5,240.5C 324.5,243.167 324.5,245.833 324.5,248.5C 324.961,256.327 322.794,263.327 318,269.5C 309.865,275.81 301.365,281.477 292.5,286.5C 289.318,286.584 286.985,287.917 285.5,290.5C 283.716,290.893 282.05,291.559 280.5,292.5C 278.574,293.242 276.741,294.242 275,295.5C 267.5,308.333 257.333,318.5 244.5,326C 227.719,335.862 209.719,342.362 190.5,345.5C 189.262,345.19 189.262,344.69 190.5,344C 202.365,337.238 214.032,330.238 225.5,323C 204.996,322.832 184.663,322.332 164.5,321.5C 181.3,311.263 198.3,301.263 215.5,291.5C 221.997,288.086 228.33,284.419 234.5,280.5C 247.167,273.167 259.833,265.833 272.5,258.5C 280.329,254.42 287.996,250.087 295.5,245.5C 301.735,243.26 306.402,239.26 309.5,233.5C 311.897,230.691 313.23,227.358 313.5,223.5 Z"/></g>
<g><path style="opacity:1" fill="#473c6e" d="M 313.5,253.5 C 314.158,254.793 314.492,256.293 314.5,258C 314.695,260.352 314.028,262.352 312.5,264C 302.252,269.707 292.085,275.54 282,281.5C 281.216,278.24 281.383,275.073 282.5,272C 293.228,266.311 303.561,260.144 313.5,253.5 Z"/></g>
<g><path style="opacity:1" fill="#483c73" d="M 134.5,279.5 C 168.004,279.168 201.338,279.502 234.5,280.5C 228.33,284.419 221.997,288.086 215.5,291.5C 188.672,290.502 161.672,290.169 134.5,290.5C 134.5,286.833 134.5,283.167 134.5,279.5 Z"/></g>
<g><path style="opacity:0.996" fill="#cbc1ec" d="M 477.5,296.5 C 477.631,297.239 477.464,297.906 477,298.5C 455.413,294.624 433.746,290.958 412,287.5C 410.93,287.528 410.097,287.861 409.5,288.5C 408.003,286.71 407.336,284.544 407.5,282C 407.336,279.456 408.003,277.29 409.5,275.5C 412.767,274.347 416.1,273.847 419.5,274C 418.167,274.667 416.833,275.333 415.5,276C 417.411,277.416 419.578,278.25 422,278.5C 433.82,276.228 445.653,276.062 457.5,278C 467.611,280.617 474.278,286.784 477.5,296.5 Z"/></g>
<g><path style="opacity:0.881" fill="#c5baeb" d="M 292.5,286.5 C 299.473,290.321 306.473,294.154 313.5,298C 324.54,305.526 325.207,313.859 315.5,323C 272.337,347.414 229.337,372.081 186.5,397C 183.125,398.029 181.958,400.196 183,403.5C 183.816,404.823 184.983,405.489 186.5,405.5C 184.66,407.669 182.326,409.002 179.5,409.5C 175.53,404.402 175.53,399.235 179.5,394C 224.828,368.338 269.828,342.172 314.5,315.5C 317.314,311.418 316.647,307.918 312.5,305C 303.764,299.633 294.764,294.799 285.5,290.5C 286.985,287.917 289.318,286.584 292.5,286.5 Z"/></g>
<g><path style="opacity:0.998" fill="#d1c8ee" d="M 477.5,296.5 C 484.582,299.19 491.582,301.857 498.5,304.5C 486.263,312.58 472.93,315.08 458.5,312C 442.366,307.957 427.032,301.957 412.5,294C 410.84,292.512 409.84,290.679 409.5,288.5C 410.097,287.861 410.93,287.528 412,287.5C 433.746,290.958 455.413,294.624 477,298.5C 477.464,297.906 477.631,297.239 477.5,296.5 Z"/></g>
<g><path style="opacity:0.977" fill="#d6d0eb" d="M 280.5,292.5 C 280.505,311.992 272.838,327.825 257.5,340C 236.393,355.764 212.727,365.598 186.5,369.5C 185.536,362.254 185.203,354.92 185.5,347.5C 187.167,346.833 188.833,346.167 190.5,345.5C 209.719,342.362 227.719,335.862 244.5,326C 257.333,318.5 267.5,308.333 275,295.5C 276.741,294.242 278.574,293.242 280.5,292.5 Z"/></g>
<g><path style="opacity:0.956" fill="#e9e5f6" d="M 389.5,298.5 C 386.489,299.669 383.822,301.336 381.5,303.5C 384.997,306.083 388.664,308.416 392.5,310.5C 393.562,311.425 393.562,312.425 392.5,313.5C 389.215,315.975 385.548,317.642 381.5,318.5C 377.145,316.571 372.979,314.238 369,311.5C 368.316,312.784 368.483,313.951 369.5,315C 372.312,316.328 374.978,317.828 377.5,319.5C 377.5,320.5 377.5,321.5 377.5,322.5C 374.699,323.735 372.032,325.235 369.5,327C 367.866,327.494 366.199,327.66 364.5,327.5C 360.727,325.779 357.061,323.779 353.5,321.5C 352.167,322.5 352.167,323.5 353.5,324.5C 356.231,326.192 358.898,327.858 361.5,329.5C 361.5,330.167 361.5,330.833 361.5,331.5C 357.783,334.025 353.783,336.025 349.5,337.5C 345.527,335.513 341.527,333.513 337.5,331.5C 337.189,330.522 336.522,329.855 335.5,329.5C 331.628,331.597 327.961,333.931 324.5,336.5C 327.997,339.083 331.664,341.416 335.5,343.5C 336.562,344.425 336.562,345.425 335.5,346.5C 332.215,348.975 328.548,350.642 324.5,351.5C 320.145,349.571 315.979,347.238 312,344.5C 311.333,345.5 311.333,346.5 312,347.5C 314.278,348.719 316.445,350.052 318.5,351.5C 318.577,352.75 319.244,353.583 320.5,354C 319.944,354.383 319.611,354.883 319.5,355.5C 315.952,358.275 311.952,359.941 307.5,360.5C 303.727,358.779 300.061,356.779 296.5,354.5C 295.167,355.5 295.167,356.5 296.5,357.5C 299.024,358.592 301.357,359.926 303.5,361.5C 303.5,362.5 303.5,363.5 303.5,364.5C 300.322,367.258 296.655,369.258 292.5,370.5C 287.643,368.486 283.143,365.819 279,362.5C 278.333,363.5 278.333,364.5 279,365.5C 281.443,367.301 283.943,368.968 286.5,370.5C 286.557,371.609 286.89,372.609 287.5,373.5C 284.038,376.564 280.038,378.564 275.5,379.5C 271.145,377.571 266.979,375.238 263,372.5C 262.316,373.784 262.483,374.951 263.5,376C 266.356,377.259 269.023,378.759 271.5,380.5C 271.5,381.167 271.5,381.833 271.5,382.5C 268.037,386.275 263.704,388.275 258.5,388.5C 254.7,386.766 251.034,384.766 247.5,382.5C 246.479,383.002 246.312,383.668 247,384.5C 248.944,386.221 251.11,387.554 253.5,388.5C 254.038,390.117 254.371,391.784 254.5,393.5C 251.027,395.652 247.36,397.319 243.5,398.5C 239.145,396.571 234.979,394.238 231,391.5C 230.316,392.784 230.483,393.951 231.5,395C 234.391,396.274 237.058,397.774 239.5,399.5C 239.443,400.609 239.11,401.609 238.5,402.5C 234.967,405.266 230.967,406.933 226.5,407.5C 222.85,405.528 219.184,403.528 215.5,401.5C 214.479,402.002 214.312,402.668 215,403.5C 217.988,405.399 220.821,407.399 223.5,409.5C 223.167,410.167 222.833,410.833 222.5,411.5C 218.918,414.295 214.918,415.961 210.5,416.5C 206.327,415.163 202.494,413.163 199,410.5C 198.251,411.635 198.417,412.635 199.5,413.5C 201.36,414.26 203.027,415.26 204.5,416.5C 205.167,417.833 205.833,419.167 206.5,420.5C 203.534,422.988 200.201,424.988 196.5,426.5C 191.404,425.081 186.737,422.748 182.5,419.5C 181.167,420.5 181.167,421.5 182.5,422.5C 185.231,424.192 187.898,425.858 190.5,427.5C 190.5,428.5 190.5,429.5 190.5,430.5C 186.677,432.75 182.677,434.416 178.5,435.5C 174.034,433.434 169.701,431.1 165.5,428.5C 160.912,430.127 156.245,432.46 151.5,435.5C 149.589,434.925 147.922,433.925 146.5,432.5C 146.286,430.856 146.62,429.356 147.5,428C 158.393,422.059 169.06,415.892 179.5,409.5C 182.326,409.002 184.66,407.669 186.5,405.5C 249.303,369.598 311.969,333.431 374.5,297C 379.881,294.749 384.881,295.249 389.5,298.5 Z"/></g>
<g><path style="opacity:1" fill="#44396c" d="M 134.5,290.5 C 161.672,290.169 188.672,290.502 215.5,291.5C 198.3,301.263 181.3,311.263 164.5,321.5C 157.554,325.309 150.554,329.142 143.5,333C 140.364,334.041 137.864,333.207 136,330.5C 134.537,317.265 134.037,303.932 134.5,290.5 Z"/></g>
<g><path style="opacity:1" fill="#b09eec" d="M 381.5,318.5 C 382.551,319.222 383.218,320.222 383.5,321.5C 381.142,321.747 379.142,321.081 377.5,319.5C 374.978,317.828 372.312,316.328 369.5,315C 368.483,313.951 368.316,312.784 369,311.5C 372.979,314.238 377.145,316.571 381.5,318.5 Z"/></g>
<g><path style="opacity:1" fill="#c8bdec" d="M 392.5,313.5 C 393.776,314.386 393.776,315.386 392.5,316.5C 389.634,318.432 386.634,320.099 383.5,321.5C 383.218,320.222 382.551,319.222 381.5,318.5C 385.548,317.642 389.215,315.975 392.5,313.5 Z"/></g>
<g><path style="opacity:1" fill="#af9eec" d="M 364.5,327.5 C 365.11,328.391 365.443,329.391 365.5,330.5C 364.167,330.167 362.833,329.833 361.5,329.5C 358.898,327.858 356.231,326.192 353.5,324.5C 352.167,323.5 352.167,322.5 353.5,321.5C 357.061,323.779 360.727,325.779 364.5,327.5 Z"/></g>
<g><path style="opacity:1" fill="#dfdaef" d="M 125.5,171.5 C 125.5,191.167 125.5,210.833 125.5,230.5C 128.167,230.5 130.833,230.5 133.5,230.5C 133.17,214.325 133.504,198.325 134.5,182.5C 134.5,184.5 134.5,186.5 134.5,188.5C 134.5,192.167 134.5,195.833 134.5,199.5C 134.5,203.167 134.5,206.833 134.5,210.5C 134.5,214.833 134.5,219.167 134.5,223.5C 134.5,226.833 134.5,230.167 134.5,233.5C 134.5,237.167 134.5,240.833 134.5,244.5C 134.5,248.833 134.5,253.167 134.5,257.5C 134.5,264.833 134.5,272.167 134.5,279.5C 134.5,283.167 134.5,286.833 134.5,290.5C 134.037,303.932 134.537,317.265 136,330.5C 137.864,333.207 140.364,334.041 143.5,333C 150.554,329.142 157.554,325.309 164.5,321.5C 184.663,322.332 204.996,322.832 225.5,323C 214.032,330.238 202.365,337.238 190.5,344C 189.262,344.69 189.262,345.19 190.5,345.5C 188.833,346.167 187.167,346.833 185.5,347.5C 178.004,350.745 171.004,354.745 164.5,359.5C 157.329,363.251 150.329,367.251 143.5,371.5C 139.047,376.226 133.714,377.56 127.5,375.5C 126.489,373.628 125.655,371.628 125,369.5C 124.168,303.332 124.335,237.332 125.5,171.5 Z"/></g>
<g><path style="opacity:1" fill="#c7bcec" d="M 377.5,322.5 C 375.009,327.102 371.009,329.769 365.5,330.5C 365.443,329.391 365.11,328.391 364.5,327.5C 366.199,327.66 367.866,327.494 369.5,327C 372.032,325.235 374.699,323.735 377.5,322.5 Z"/></g>
<g><path style="opacity:1" fill="#e1dcf3" d="M 389.5,298.5 C 410.004,309.917 430.338,321.584 450.5,333.5C 447.909,335.281 445.575,337.281 443.5,339.5C 441.516,338.844 439.516,338.178 437.5,337.5C 435.506,338.489 433.506,339.489 431.5,340.5C 432.494,338.666 432.494,336.999 431.5,335.5C 432.598,334.603 432.598,333.77 431.5,333C 427.509,330.422 423.343,328.255 419,326.5C 414.952,327.777 411.118,329.443 407.5,331.5C 406.761,331.631 406.094,331.464 405.5,331C 408.249,329.877 410.749,328.377 413,326.5C 413.74,325.251 413.573,324.251 412.5,323.5C 408.98,319.57 404.646,316.904 399.5,315.5C 394.944,316.601 391.278,318.935 388.5,322.5C 387.596,323.209 387.263,324.209 387.5,325.5C 385.545,324.677 383.545,324.51 381.5,325C 378.5,326.667 375.5,328.333 372.5,330C 371.402,330.77 371.402,331.603 372.5,332.5C 371.957,332.56 371.624,332.893 371.5,333.5C 372.193,334.518 372.859,335.518 373.5,336.5C 371.446,335.391 369.279,334.391 367,333.5C 362.439,335.344 358.605,338.011 355.5,341.5C 355.33,342.822 355.663,343.989 356.5,345C 359.723,347.062 363.057,348.896 366.5,350.5C 367.209,351.404 368.209,351.737 369.5,351.5C 365.483,354.267 361.316,356.934 357,359.5C 356.768,358.263 356.268,357.263 355.5,356.5C 352.045,352.596 347.712,349.93 342.5,348.5C 339.1,349.697 335.766,351.197 332.5,353C 331.748,353.671 331.414,354.504 331.5,355.5C 330.314,356.705 330.314,358.039 331.5,359.5C 329.429,357.9 327.095,357.4 324.5,358C 321.339,359.413 318.339,361.08 315.5,363C 314.402,363.77 314.402,364.603 315.5,365.5C 314.957,365.56 314.624,365.893 314.5,366.5C 315.193,367.518 315.859,368.518 316.5,369.5C 314.446,368.391 312.279,367.391 310,366.5C 306.595,368.453 303.095,370.287 299.5,372C 298.748,372.671 298.414,373.504 298.5,374.5C 298.5,375.5 298.5,376.5 298.5,377.5C 292.878,376.125 287.878,377.458 283.5,381.5C 282.438,382.425 282.438,383.425 283.5,384.5C 282.662,384.842 282.328,385.508 282.5,386.5C 280.181,385.833 277.847,385.666 275.5,386C 272.011,387.72 269.011,389.887 266.5,392.5C 265.314,393.705 265.314,395.039 266.5,396.5C 263.887,395.565 261.221,395.398 258.5,396C 255.5,397.667 252.5,399.333 249.5,401C 250.056,401.383 250.389,401.883 250.5,402.5C 249.596,403.209 249.263,404.209 249.5,405.5C 247.218,404.61 244.885,404.444 242.5,405C 239.995,406.753 237.329,408.253 234.5,409.5C 233.438,410.425 233.438,411.425 234.5,412.5C 233.375,413.348 233.375,414.348 234.5,415.5C 232.104,413.788 229.438,413.288 226.5,414C 223.833,415.667 221.167,417.333 218.5,419C 217.748,419.671 217.414,420.504 217.5,421.5C 217.5,422.5 217.5,423.5 217.5,424.5C 214.887,423.565 212.221,423.398 209.5,424C 207.083,425.626 204.583,427.126 202,428.5C 201.53,429.577 201.697,430.577 202.5,431.5C 201.375,432.348 201.375,433.348 202.5,434.5C 195.63,431.754 189.963,433.421 185.5,439.5C 184.209,440.542 184.209,441.708 185.5,443C 189.394,445.446 193.394,447.612 197.5,449.5C 197.586,450.496 197.252,451.329 196.5,452C 193.447,453.527 190.447,455.027 187.5,456.5C 175.164,450.001 163.164,443.001 151.5,435.5C 156.245,432.46 160.912,430.127 165.5,428.5C 165.33,429.822 165.663,430.989 166.5,432C 170.619,434.726 174.952,436.893 179.5,438.5C 184.401,437.231 188.067,434.564 190.5,430.5C 190.5,429.5 190.5,428.5 190.5,427.5C 191.609,427.557 192.609,427.89 193.5,428.5C 194.601,429.598 195.934,429.765 197.5,429C 201.213,427.149 204.547,424.816 207.5,422C 207.43,421.235 207.097,420.735 206.5,420.5C 205.833,419.167 205.167,417.833 204.5,416.5C 206.645,417.989 208.978,418.989 211.5,419.5C 215.522,418.657 219.188,416.99 222.5,414.5C 223.776,413.386 223.776,412.386 222.5,411.5C 222.833,410.833 223.167,410.167 223.5,409.5C 225.117,410.038 226.784,410.371 228.5,410.5C 232.654,408.923 236.321,406.59 239.5,403.5C 239.376,402.893 239.043,402.56 238.5,402.5C 239.11,401.609 239.443,400.609 239.5,399.5C 240.391,400.11 241.391,400.443 242.5,400.5C 242.735,401.097 243.235,401.43 244,401.5C 247.971,400.015 251.638,398.015 255,395.5C 255.692,394.563 255.525,393.897 254.5,393.5C 254.371,391.784 254.038,390.117 253.5,388.5C 255.461,390.312 257.794,391.312 260.5,391.5C 263.889,390.309 267.222,388.809 270.5,387C 272.466,385.653 272.799,384.153 271.5,382.5C 271.5,381.833 271.5,381.167 271.5,380.5C 273.297,381.73 275.297,382.396 277.5,382.5C 280.943,380.896 284.277,379.062 287.5,377C 288.791,375.708 288.791,374.542 287.5,373.5C 286.89,372.609 286.557,371.609 286.5,370.5C 287.833,371.167 289.167,371.833 290.5,372.5C 291.601,373.598 292.934,373.765 294.5,373C 298.213,371.149 301.547,368.816 304.5,366C 304.43,365.235 304.097,364.735 303.5,364.5C 303.5,363.5 303.5,362.5 303.5,361.5C 305.05,362.441 306.716,363.107 308.5,363.5C 312.522,362.657 316.188,360.99 319.5,358.5C 320.776,357.386 320.776,356.386 319.5,355.5C 319.611,354.883 319.944,354.383 320.5,354C 319.244,353.583 318.577,352.75 318.5,351.5C 319.833,352.167 321.167,352.833 322.5,353.5C 324.772,354.764 327.105,354.598 329.5,353C 331.754,351.623 333.92,350.123 336,348.5C 336.692,347.563 336.525,346.897 335.5,346.5C 336.562,345.425 336.562,344.425 335.5,343.5C 331.664,341.416 327.997,339.083 324.5,336.5C 327.961,333.931 331.628,331.597 335.5,329.5C 336.522,329.855 337.189,330.522 337.5,331.5C 336.226,332.189 336.226,333.023 337.5,334C 340.723,336.062 344.057,337.896 347.5,339.5C 350.253,340.659 352.919,340.159 355.5,338C 357.249,336.708 359.082,335.542 361,334.5C 361.483,333.552 361.649,332.552 361.5,331.5C 361.5,330.833 361.5,330.167 361.5,329.5C 362.833,329.833 364.167,330.167 365.5,330.5C 371.009,329.769 375.009,327.102 377.5,322.5C 377.5,321.5 377.5,320.5 377.5,319.5C 379.142,321.081 381.142,321.747 383.5,321.5C 386.634,320.099 389.634,318.432 392.5,316.5C 393.776,315.386 393.776,314.386 392.5,313.5C 393.562,312.425 393.562,311.425 392.5,310.5C 388.664,308.416 384.997,306.083 381.5,303.5C 383.822,301.336 386.489,299.669 389.5,298.5 Z"/></g>
<g><path style="opacity:1" fill="#ede9f8" d="M 431.5,335.5 C 427.967,338.266 423.967,339.933 419.5,340.5C 415.527,338.513 411.527,336.513 407.5,334.5C 407.5,333.5 407.5,332.5 407.5,331.5C 411.118,329.443 414.952,327.777 419,326.5C 423.343,328.255 427.509,330.422 431.5,333C 432.598,333.77 432.598,334.603 431.5,335.5 Z"/></g>
<g><path style="opacity:1" fill="#ede9f8" d="M 387.5,325.5 C 389.996,326.58 392.33,327.914 394.5,329.5C 396.889,331.369 396.889,333.203 394.5,335C 391.178,337.332 387.511,338.498 383.5,338.5C 379.7,336.766 376.034,334.766 372.5,332.5C 371.402,331.603 371.402,330.77 372.5,330C 375.5,328.333 378.5,326.667 381.5,325C 383.545,324.51 385.545,324.677 387.5,325.5 Z"/></g>
<g><path style="opacity:1" fill="#b09eeb" d="M 388.5,322.5 C 392.164,325.335 396.164,327.668 400.5,329.5C 401.091,330.151 401.757,330.818 402.5,331.5C 401.833,331.833 401.167,332.167 400.5,332.5C 398.506,331.511 396.506,330.511 394.5,329.5C 392.33,327.914 389.996,326.58 387.5,325.5C 387.263,324.209 387.596,323.209 388.5,322.5 Z"/></g>
<g><path style="opacity:1" fill="#ede9f8" d="M 412.5,323.5 C 409.184,326.804 405.184,328.804 400.5,329.5C 396.164,327.668 392.164,325.335 388.5,322.5C 391.278,318.935 394.944,316.601 399.5,315.5C 404.646,316.904 408.98,319.57 412.5,323.5 Z"/></g>
<g><path style="opacity:1" fill="#ad9ceb" d="M 337.5,331.5 C 341.527,333.513 345.527,335.513 349.5,337.5C 349.5,338.833 348.833,339.5 347.5,339.5C 344.057,337.896 340.723,336.062 337.5,334C 336.226,333.023 336.226,332.189 337.5,331.5 Z"/></g>
<g><path style="opacity:1" fill="#c7bdec" d="M 361.5,331.5 C 361.649,332.552 361.483,333.552 361,334.5C 359.082,335.542 357.249,336.708 355.5,338C 352.919,340.159 350.253,340.659 347.5,339.5C 348.833,339.5 349.5,338.833 349.5,337.5C 353.783,336.025 357.783,334.025 361.5,331.5 Z"/></g>
<g><path style="opacity:1" fill="#af9dec" d="M 372.5,332.5 C 376.034,334.766 379.7,336.766 383.5,338.5C 384.562,339.575 384.562,340.575 383.5,341.5C 382.583,340.873 381.583,340.539 380.5,340.5C 378.337,338.917 376.004,337.584 373.5,336.5C 372.859,335.518 372.193,334.518 371.5,333.5C 371.624,332.893 371.957,332.56 372.5,332.5 Z"/></g>
<g><path style="opacity:1" fill="#ede9f8" d="M 373.5,336.5 C 376.004,337.584 378.337,338.917 380.5,340.5C 380.443,341.609 380.11,342.609 379.5,343.5C 376.027,345.652 372.36,347.319 368.5,348.5C 364.034,346.434 359.701,344.1 355.5,341.5C 358.605,338.011 362.439,335.344 367,333.5C 369.279,334.391 371.446,335.391 373.5,336.5 Z"/></g>
<g><path style="opacity:1" fill="#ae9ceb" d="M 407.5,334.5 C 411.527,336.513 415.527,338.513 419.5,340.5C 420.85,341.824 420.683,342.824 419,343.5C 417.235,342.368 415.402,341.368 413.5,340.5C 411.784,338.975 409.784,337.975 407.5,337.5C 407.5,336.5 407.5,335.5 407.5,334.5 Z"/></g>
<g><path style="opacity:0.942" fill="#aa97eb" d="M 68.5,340.5 C 83.5043,348.666 98.1709,357.333 112.5,366.5C 95.0304,362.437 80.3637,353.771 68.5,340.5 Z"/></g>
<g><path style="opacity:1" fill="#ae9dec" d="M 355.5,341.5 C 359.701,344.1 364.034,346.434 368.5,348.5C 368.5,349.833 367.833,350.5 366.5,350.5C 363.057,348.896 359.723,347.062 356.5,345C 355.663,343.989 355.33,342.822 355.5,341.5 Z"/></g>
<g><path style="opacity:1" fill="#c6bbec" d="M 379.5,343.5 C 380.645,344.793 380.311,345.959 378.5,347C 375.447,348.527 372.447,350.027 369.5,351.5C 368.209,351.737 367.209,351.404 366.5,350.5C 367.833,350.5 368.5,349.833 368.5,348.5C 372.36,347.319 376.027,345.652 379.5,343.5 Z"/></g>
<g><path style="opacity:1" fill="#af9eec" d="M 324.5,351.5 C 324.5,352.833 323.833,353.5 322.5,353.5C 321.167,352.833 319.833,352.167 318.5,351.5C 316.445,350.052 314.278,348.719 312,347.5C 311.333,346.5 311.333,345.5 312,344.5C 315.979,347.238 320.145,349.571 324.5,351.5 Z"/></g>
<g><path style="opacity:1" fill="#af9eeb" d="M 427.5,345.5 C 437.835,352.003 448.502,358.003 459.5,363.5C 458.393,365.847 456.726,366.18 454.5,364.5C 451.001,362.25 447.335,360.25 443.5,358.5C 441.178,356.336 438.511,354.669 435.5,353.5C 432.869,351.847 430.203,350.181 427.5,348.5C 426.375,347.348 426.375,346.348 427.5,345.5 Z"/></g>
<g><path style="opacity:1" fill="#c6bbec" d="M 335.5,346.5 C 336.525,346.897 336.692,347.563 336,348.5C 333.92,350.123 331.754,351.623 329.5,353C 327.105,354.598 324.772,354.764 322.5,353.5C 323.833,353.5 324.5,352.833 324.5,351.5C 328.548,350.642 332.215,348.975 335.5,346.5 Z"/></g>
<g><path style="opacity:1" fill="#ece8f8" d="M 427.5,348.5 C 430.203,350.181 432.869,351.847 435.5,353.5C 435.489,355.017 434.823,356.184 433.5,357C 430.264,358.786 426.93,360.286 423.5,361.5C 419.527,359.513 415.527,357.513 411.5,355.5C 410.316,354.312 410.316,353.145 411.5,352C 414.5,350.333 417.5,348.667 420.5,347C 422.922,346.865 425.255,347.365 427.5,348.5 Z"/></g>
<g><path style="opacity:0.973" fill="#cac0eb" d="M 185.5,347.5 C 185.203,354.92 185.536,362.254 186.5,369.5C 179.544,370.578 172.544,371.244 165.5,371.5C 165.817,367.298 165.483,363.298 164.5,359.5C 171.004,354.745 178.004,350.745 185.5,347.5 Z"/></g>
<g><path style="opacity:1" fill="#edeaf8" d="M 355.5,356.5 C 352.038,359.564 348.038,361.564 343.5,362.5C 339.164,360.668 335.164,358.335 331.5,355.5C 331.414,354.504 331.748,353.671 332.5,353C 335.766,351.197 339.1,349.697 342.5,348.5C 347.712,349.93 352.045,352.596 355.5,356.5 Z"/></g>
<g><path style="opacity:1" fill="#d7d0f0" d="M 412.5,323.5 C 413.573,324.251 413.74,325.251 413,326.5C 410.749,328.377 408.249,329.877 405.5,331C 406.094,331.464 406.761,331.631 407.5,331.5C 407.5,332.5 407.5,333.5 407.5,334.5C 407.5,335.5 407.5,336.5 407.5,337.5C 405.429,335.9 403.095,335.4 400.5,336C 398.33,337.586 395.996,338.92 393.5,340C 392.177,340.816 391.511,341.983 391.5,343.5C 390.375,344.348 390.375,345.348 391.5,346.5C 388.887,345.565 386.221,345.398 383.5,346C 381.33,347.586 378.996,348.92 376.5,350C 375.748,350.671 375.414,351.504 375.5,352.5C 374.209,353.542 374.209,354.708 375.5,356C 378.833,358 382.167,360 385.5,362C 389.343,362.651 390.009,361.818 387.5,359.5C 393.009,358.769 397.009,356.102 399.5,351.5C 400.695,351.678 401.862,352.011 403,352.5C 404.03,352.164 404.53,351.497 404.5,350.5C 408.515,349.409 412.015,347.409 415,344.5C 414.857,343.135 414.357,341.802 413.5,340.5C 415.402,341.368 417.235,342.368 419,343.5C 420.683,342.824 420.85,341.824 419.5,340.5C 423.967,339.933 427.967,338.266 431.5,335.5C 432.494,336.999 432.494,338.666 431.5,340.5C 429.862,341.657 428.196,342.824 426.5,344C 427.056,344.383 427.389,344.883 427.5,345.5C 426.375,346.348 426.375,347.348 427.5,348.5C 425.255,347.365 422.922,346.865 420.5,347C 417.5,348.667 414.5,350.333 411.5,352C 410.316,353.145 410.316,354.312 411.5,355.5C 410.375,356.348 410.375,357.348 411.5,358.5C 404.63,355.754 398.963,357.421 394.5,363.5C 393.209,364.542 393.209,365.708 394.5,367C 398.626,368.966 402.626,371.132 406.5,373.5C 407.562,372.575 407.562,371.575 406.5,370.5C 410.604,370.116 414.271,368.616 417.5,366C 418.337,364.989 418.67,363.822 418.5,362.5C 419.695,362.678 420.862,363.011 422,363.5C 423.03,363.164 423.53,362.497 423.5,361.5C 426.93,360.286 430.264,358.786 433.5,357C 434.823,356.184 435.489,355.017 435.5,353.5C 438.511,354.669 441.178,356.336 443.5,358.5C 439.489,358.502 435.822,359.668 432.5,362C 426.664,365.752 420.664,369.252 414.5,372.5C 413.614,373.325 413.281,374.325 413.5,375.5C 413.281,376.675 413.614,377.675 414.5,378.5C 418.184,380.528 421.85,382.528 425.5,384.5C 425.918,385.222 426.584,385.722 427.5,386C 423.084,388.958 418.584,391.792 414,394.5C 414.331,392.981 414.164,391.648 413.5,390.5C 413.586,389.504 413.252,388.671 412.5,388C 408.623,385.562 404.623,383.395 400.5,381.5C 396.56,382.804 392.893,384.637 389.5,387C 388.402,387.77 388.402,388.603 389.5,389.5C 388.957,389.56 388.624,389.893 388.5,390.5C 389.193,391.518 389.859,392.518 390.5,393.5C 387.436,391.657 384.103,391.157 380.5,392C 377.141,393.487 374.475,395.654 372.5,398.5C 372.5,399.5 372.5,400.5 372.5,401.5C 370.218,400.61 367.885,400.444 365.5,401C 363.114,402.193 360.78,403.36 358.5,404.5C 357.761,404.631 357.094,404.464 356.5,404C 359.295,402.7 361.961,401.2 364.5,399.5C 365.776,398.386 365.776,397.386 364.5,396.5C 363.833,395.167 363.167,393.833 362.5,392.5C 364.798,394.461 367.465,395.461 370.5,395.5C 377.446,391.691 384.446,387.858 391.5,384C 393.439,383.092 394.439,381.592 394.5,379.5C 394.586,378.504 394.252,377.671 393.5,377C 389.509,374.422 385.343,372.255 381,370.5C 373.147,374.511 365.314,378.678 357.5,383C 356.748,383.671 356.414,384.504 356.5,385.5C 355.596,386.209 355.263,387.209 355.5,388.5C 353.545,387.677 351.545,387.51 349.5,388C 346.5,389.667 343.5,391.333 340.5,393C 339.402,393.77 339.402,394.603 340.5,395.5C 339.375,396.348 339.375,397.348 340.5,398.5C 338.255,397.365 335.922,396.865 333.5,397C 330.167,399 326.833,401 323.5,403C 324.056,403.383 324.389,403.883 324.5,404.5C 323.596,405.209 323.263,406.209 323.5,407.5C 321.218,406.61 318.885,406.444 316.5,407C 313.705,408.3 311.039,409.8 308.5,411.5C 307.438,412.425 307.438,413.425 308.5,414.5C 307.375,415.348 307.375,416.348 308.5,417.5C 305.988,416.072 303.322,415.572 300.5,416C 298.33,417.586 295.996,418.92 293.5,420C 292.177,420.816 291.511,421.983 291.5,423.5C 291.5,424.5 291.5,425.5 291.5,426.5C 289.689,425.178 287.689,424.678 285.5,425C 282.5,426.667 279.5,428.333 276.5,430C 275.748,430.671 275.414,431.504 275.5,432.5C 274.596,433.209 274.263,434.209 274.5,435.5C 272.218,434.61 269.885,434.444 267.5,435C 265.33,436.586 262.996,437.92 260.5,439C 259.748,439.671 259.414,440.504 259.5,441.5C 258.314,442.705 258.314,444.039 259.5,445.5C 257.442,444.067 255.108,443.4 252.5,443.5C 249.426,443.873 246.426,444.539 243.5,445.5C 243.443,444.391 243.11,443.391 242.5,442.5C 246.733,441.894 250.733,440.394 254.5,438C 255.337,436.989 255.67,435.822 255.5,434.5C 256.807,435.153 258.14,435.82 259.5,436.5C 260.386,435.675 260.719,434.675 260.5,433.5C 265.588,432.486 269.255,429.819 271.5,425.5C 272.695,425.678 273.862,426.011 275,426.5C 276.03,426.164 276.53,425.497 276.5,424.5C 280.189,422.903 283.689,420.903 287,418.5C 286.857,417.135 286.357,415.802 285.5,414.5C 287.473,415.487 289.473,416.487 291.5,417.5C 292.562,416.575 292.562,415.575 291.5,414.5C 297.359,414.081 301.692,411.415 304.5,406.5C 306.456,408.175 307.789,407.842 308.5,405.5C 312.127,404.72 315.46,403.22 318.5,401C 319.823,400.184 320.489,399.017 320.5,397.5C 321.583,397.539 322.583,397.873 323.5,398.5C 324.298,398.043 324.631,397.376 324.5,396.5C 328.381,395.226 332.048,393.393 335.5,391C 336.337,389.989 336.67,388.822 336.5,387.5C 337.936,389.319 339.603,389.652 341.5,388.5C 341.137,387.817 340.804,387.15 340.5,386.5C 344.316,385.599 347.983,384.099 351.5,382C 352.337,380.989 352.67,379.822 352.5,378.5C 353.609,378.557 354.609,378.89 355.5,379.5C 356.601,380.598 357.934,380.765 359.5,380C 364.917,377.21 370.084,374.043 375,370.5C 375.692,369.563 375.525,368.897 374.5,368.5C 375.598,367.603 375.598,366.77 374.5,366C 371.167,364 367.833,362 364.5,360C 360.808,359.343 357.475,360.176 354.5,362.5C 351.208,362.647 348.208,363.647 345.5,365.5C 345.218,364.222 344.551,363.222 343.5,362.5C 348.038,361.564 352.038,359.564 355.5,356.5C 356.268,357.263 356.768,358.263 357,359.5C 361.316,356.934 365.483,354.267 369.5,351.5C 372.447,350.027 375.447,348.527 378.5,347C 380.311,345.959 380.645,344.793 379.5,343.5C 380.11,342.609 380.443,341.609 380.5,340.5C 381.583,340.539 382.583,340.873 383.5,341.5C 384.562,340.575 384.562,339.575 383.5,338.5C 387.511,338.498 391.178,337.332 394.5,335C 396.889,333.203 396.889,331.369 394.5,329.5C 396.506,330.511 398.506,331.511 400.5,332.5C 401.167,332.167 401.833,331.833 402.5,331.5C 401.757,330.818 401.091,330.151 400.5,329.5C 405.184,328.804 409.184,326.804 412.5,323.5 Z"/></g>
<g><path style="opacity:1" fill="#ede9f8" d="M 391.5,346.5 C 394.203,348.181 396.869,349.847 399.5,351.5C 397.009,356.102 393.009,358.769 387.5,359.5C 383.164,357.668 379.164,355.335 375.5,352.5C 375.414,351.504 375.748,350.671 376.5,350C 378.996,348.92 381.33,347.586 383.5,346C 386.221,345.398 388.887,345.565 391.5,346.5 Z"/></g>
<g><path style="opacity:1" fill="#af9eec" d="M 391.5,343.5 C 395.701,346.1 400.034,348.434 404.5,350.5C 404.53,351.497 404.03,352.164 403,352.5C 401.862,352.011 400.695,351.678 399.5,351.5C 396.869,349.847 394.203,348.181 391.5,346.5C 390.375,345.348 390.375,344.348 391.5,343.5 Z"/></g>
<g><path style="opacity:1" fill="#ede9f8" d="M 407.5,337.5 C 409.784,337.975 411.784,338.975 413.5,340.5C 414.357,341.802 414.857,343.135 415,344.5C 412.015,347.409 408.515,349.409 404.5,350.5C 400.034,348.434 395.701,346.1 391.5,343.5C 391.511,341.983 392.177,340.816 393.5,340C 395.996,338.92 398.33,337.586 400.5,336C 403.095,335.4 405.429,335.9 407.5,337.5 Z"/></g>
<g><path style="opacity:1" fill="#ece8f7" d="M 443.5,339.5 C 452.187,344.933 461.02,350.267 470,355.5C 470.507,356.996 470.007,358.163 468.5,359C 465.447,360.527 462.447,362.027 459.5,363.5C 448.502,358.003 437.835,352.003 427.5,345.5C 427.389,344.883 427.056,344.383 426.5,344C 428.196,342.824 429.862,341.657 431.5,340.5C 433.506,339.489 435.506,338.489 437.5,337.5C 439.516,338.178 441.516,338.844 443.5,339.5 Z"/></g>
<g><path style="opacity:1" fill="#b1a0ec" d="M 375.5,352.5 C 379.164,355.335 383.164,357.668 387.5,359.5C 390.009,361.818 389.343,362.651 385.5,362C 382.167,360 378.833,358 375.5,356C 374.209,354.708 374.209,353.542 375.5,352.5 Z"/></g>
<g><path style="opacity:0.999" fill="#d3caef" d="M 450.5,333.5 C 463.278,340.439 475.944,347.605 488.5,355C 490.155,356.444 490.822,358.278 490.5,360.5C 413.628,405.434 336.628,450.101 259.5,494.5C 257.5,494.5 255.5,494.5 253.5,494.5C 240.471,487.657 227.804,480.323 215.5,472.5C 219.173,471 222.506,469 225.5,466.5C 229.017,468.424 232.684,470.091 236.5,471.5C 238.655,471.628 240.655,471.128 242.5,470C 250.5,465.333 258.5,460.667 266.5,456C 268.311,454.959 268.645,453.793 267.5,452.5C 267.5,451.5 267.5,450.5 267.5,449.5C 269.142,451.081 271.142,451.747 273.5,451.5C 275.117,450.962 276.784,450.629 278.5,450.5C 277.77,451.712 276.77,452.712 275.5,453.5C 275.863,454.183 276.196,454.85 276.5,455.5C 275.662,455.842 275.328,456.508 275.5,457.5C 268.873,456.15 263.54,458.15 259.5,463.5C 258.314,464.705 258.314,466.039 259.5,467.5C 257.429,465.9 255.095,465.4 252.5,466C 249.167,468 245.833,470 242.5,472C 243.056,472.383 243.389,472.883 243.5,473.5C 242.224,474.386 242.224,475.386 243.5,476.5C 247.007,478.754 250.673,480.754 254.5,482.5C 255.298,482.043 255.631,481.376 255.5,480.5C 259.127,479.72 262.46,478.22 265.5,476C 267.889,474.203 267.889,472.369 265.5,470.5C 267.402,471.368 269.235,472.368 271,473.5C 272.683,472.824 272.85,471.824 271.5,470.5C 275.105,470.201 278.439,469.035 281.5,467C 283.037,465.89 283.703,464.39 283.5,462.5C 285.383,464.136 287.383,464.469 289.5,463.5C 289.137,462.817 288.804,462.15 288.5,461.5C 292.127,460.72 295.46,459.22 298.5,457C 299.823,456.184 300.489,455.017 300.5,453.5C 302.691,455.353 305.025,455.687 307.5,454.5C 331.612,440.894 355.612,427.061 379.5,413C 381.311,411.959 381.645,410.793 380.5,409.5C 380.611,408.883 380.944,408.383 381.5,408C 380.244,407.583 379.577,406.75 379.5,405.5C 380.915,406.289 382.415,406.956 384,407.5C 385.03,407.164 385.53,406.497 385.5,405.5C 389.127,404.72 392.46,403.22 395.5,401C 396.823,400.184 397.489,399.017 397.5,397.5C 398.583,397.539 399.583,397.873 400.5,398.5C 401.562,397.575 401.562,396.575 400.5,395.5C 405.378,395.227 409.711,393.56 413.5,390.5C 414.164,391.648 414.331,392.981 414,394.5C 418.584,391.792 423.084,388.958 427.5,386C 426.584,385.722 425.918,385.222 425.5,384.5C 426.376,384.631 427.043,384.298 427.5,383.5C 426.757,382.818 426.091,382.151 425.5,381.5C 426.873,381.657 428.207,381.49 429.5,381C 436.167,377.333 442.833,373.667 449.5,370C 452.079,368.924 453.746,367.091 454.5,364.5C 456.726,366.18 458.393,365.847 459.5,363.5C 462.447,362.027 465.447,360.527 468.5,359C 470.007,358.163 470.507,356.996 470,355.5C 461.02,350.267 452.187,344.933 443.5,339.5C 445.575,337.281 447.909,335.281 450.5,333.5 Z"/></g>
<g><path style="opacity:1" fill="#af9dec" d="M 307.5,360.5 C 308.11,361.391 308.443,362.391 308.5,363.5C 306.716,363.107 305.05,362.441 303.5,361.5C 301.357,359.926 299.024,358.592 296.5,357.5C 295.167,356.5 295.167,355.5 296.5,354.5C 300.061,356.779 303.727,358.779 307.5,360.5 Z"/></g>
<g><path style="opacity:1" fill="#c7bcec" d="M 319.5,355.5 C 320.776,356.386 320.776,357.386 319.5,358.5C 316.188,360.99 312.522,362.657 308.5,363.5C 308.443,362.391 308.11,361.391 307.5,360.5C 311.952,359.941 315.952,358.275 319.5,355.5 Z"/></g>
<g><path style="opacity:1" fill="#ad9beb" d="M 411.5,355.5 C 415.527,357.513 419.527,359.513 423.5,361.5C 423.53,362.497 423.03,363.164 422,363.5C 420.862,363.011 419.695,362.678 418.5,362.5C 416.664,360.412 414.331,359.079 411.5,358.5C 410.375,357.348 410.375,356.348 411.5,355.5 Z"/></g>
<g><path style="opacity:1" fill="#b2a1ec" d="M 331.5,355.5 C 335.164,358.335 339.164,360.668 343.5,362.5C 344.551,363.222 345.218,364.222 345.5,365.5C 343.142,365.747 341.142,365.081 339.5,363.5C 337.062,361.733 334.395,360.399 331.5,359.5C 330.314,358.039 330.314,356.705 331.5,355.5 Z"/></g>
<g><path style="opacity:1" fill="#ede9f8" d="M 411.5,358.5 C 414.331,359.079 416.664,360.412 418.5,362.5C 418.67,363.822 418.337,364.989 417.5,366C 414.271,368.616 410.604,370.116 406.5,370.5C 402.164,368.668 398.164,366.335 394.5,363.5C 398.963,357.421 404.63,355.754 411.5,358.5 Z"/></g>
<g><path style="opacity:1" fill="#ede9f8" d="M 331.5,359.5 C 334.395,360.399 337.062,361.733 339.5,363.5C 339.5,364.5 339.5,365.5 339.5,366.5C 336.699,367.735 334.032,369.235 331.5,371C 329.866,371.494 328.199,371.66 326.5,371.5C 322.7,369.766 319.034,367.766 315.5,365.5C 314.402,364.603 314.402,363.77 315.5,363C 318.339,361.08 321.339,359.413 324.5,358C 327.095,357.4 329.429,357.9 331.5,359.5 Z"/></g>
<g><path style="opacity:0.984" fill="#bbaeeb" d="M 164.5,359.5 C 165.483,363.298 165.817,367.298 165.5,371.5C 158.167,371.5 150.833,371.5 143.5,371.5C 150.329,367.251 157.329,363.251 164.5,359.5 Z"/></g>
<g><path style="opacity:1" fill="#eeeaf8" d="M 374.5,368.5 C 368.741,372.046 362.741,375.046 356.5,377.5C 352.5,375.167 348.5,372.833 344.5,370.5C 344.414,369.504 344.748,368.671 345.5,368C 348.564,366.141 351.564,364.308 354.5,362.5C 357.475,360.176 360.808,359.343 364.5,360C 367.833,362 371.167,364 374.5,366C 375.598,366.77 375.598,367.603 374.5,368.5 Z"/></g>
<g><path style="opacity:1" fill="#ece8f7" d="M 443.5,358.5 C 447.335,360.25 451.001,362.25 454.5,364.5C 453.746,367.091 452.079,368.924 449.5,370C 442.833,373.667 436.167,377.333 429.5,381C 428.207,381.49 426.873,381.657 425.5,381.5C 421.5,379.5 417.5,377.5 413.5,375.5C 413.281,374.325 413.614,373.325 414.5,372.5C 420.664,369.252 426.664,365.752 432.5,362C 435.822,359.668 439.489,358.502 443.5,358.5 Z"/></g>
<g><path style="opacity:0.989" fill="#a996ea" d="M 490.5,360.5 C 490.666,365.511 490.499,370.511 490,375.5C 413.853,420.155 337.353,464.155 260.5,507.5C 260.818,502.968 260.485,498.634 259.5,494.5C 336.628,450.101 413.628,405.434 490.5,360.5 Z"/></g>
<g><path style="opacity:1" fill="#b1a0ec" d="M 292.5,370.5 C 292.5,371.833 291.833,372.5 290.5,372.5C 289.167,371.833 287.833,371.167 286.5,370.5C 283.943,368.968 281.443,367.301 279,365.5C 278.333,364.5 278.333,363.5 279,362.5C 283.143,365.819 287.643,368.486 292.5,370.5 Z"/></g>
<g><path style="opacity:1" fill="#b09eec" d="M 394.5,363.5 C 398.164,366.335 402.164,368.668 406.5,370.5C 407.562,371.575 407.562,372.575 406.5,373.5C 402.626,371.132 398.626,368.966 394.5,367C 393.209,365.708 393.209,364.542 394.5,363.5 Z"/></g>
<g><path style="opacity:1" fill="#c7bdec" d="M 303.5,364.5 C 304.097,364.735 304.43,365.235 304.5,366C 301.547,368.816 298.213,371.149 294.5,373C 292.934,373.765 291.601,373.598 290.5,372.5C 291.833,372.5 292.5,371.833 292.5,370.5C 296.655,369.258 300.322,367.258 303.5,364.5 Z"/></g>
<g><path style="opacity:1" fill="#af9dec" d="M 315.5,365.5 C 319.034,367.766 322.7,369.766 326.5,371.5C 327.11,372.391 327.443,373.391 327.5,374.5C 326.167,374.167 324.833,373.833 323.5,373.5C 321.664,371.412 319.331,370.079 316.5,369.5C 315.859,368.518 315.193,367.518 314.5,366.5C 314.624,365.893 314.957,365.56 315.5,365.5 Z"/></g>
<g><path style="opacity:1" fill="#ede9f8" d="M 316.5,369.5 C 319.331,370.079 321.664,371.412 323.5,373.5C 323.443,374.609 323.11,375.609 322.5,376.5C 319.027,378.652 315.36,380.319 311.5,381.5C 307.034,379.434 302.701,377.1 298.5,374.5C 298.414,373.504 298.748,372.671 299.5,372C 303.095,370.287 306.595,368.453 310,366.5C 312.279,367.391 314.446,368.391 316.5,369.5 Z"/></g>
<g><path style="opacity:1" fill="#c7bdec" d="M 339.5,366.5 C 339.67,367.822 339.337,368.989 338.5,370C 335.029,372.072 331.362,373.572 327.5,374.5C 327.443,373.391 327.11,372.391 326.5,371.5C 328.199,371.66 329.866,371.494 331.5,371C 334.032,369.235 336.699,367.735 339.5,366.5 Z"/></g>
<g><path style="opacity:1" fill="#c7bcec" d="M 374.5,368.5 C 375.525,368.897 375.692,369.563 375,370.5C 370.084,374.043 364.917,377.21 359.5,380C 357.934,380.765 356.601,380.598 355.5,379.5C 356.338,379.158 356.672,378.492 356.5,377.5C 362.741,375.046 368.741,372.046 374.5,368.5 Z"/></g>
<g><path style="opacity:1" fill="#b09fec" d="M 344.5,370.5 C 348.5,372.833 352.5,375.167 356.5,377.5C 356.672,378.492 356.338,379.158 355.5,379.5C 354.609,378.89 353.609,378.557 352.5,378.5C 349.76,376.44 346.76,374.774 343.5,373.5C 343.263,372.209 343.596,371.209 344.5,370.5 Z"/></g>
<g><path style="opacity:1" fill="#edeaf8" d="M 394.5,379.5 C 387.032,383.402 379.698,387.568 372.5,392C 371.207,392.49 369.873,392.657 368.5,392.5C 364.164,390.668 360.164,388.335 356.5,385.5C 356.414,384.504 356.748,383.671 357.5,383C 365.314,378.678 373.147,374.511 381,370.5C 385.343,372.255 389.509,374.422 393.5,377C 394.252,377.671 394.586,378.504 394.5,379.5 Z"/></g>
<g><path style="opacity:1" fill="#ede9f8" d="M 343.5,373.5 C 346.76,374.774 349.76,376.44 352.5,378.5C 352.67,379.822 352.337,380.989 351.5,382C 347.983,384.099 344.316,385.599 340.5,386.5C 335.932,384.597 331.598,382.264 327.5,379.5C 327.369,378.624 327.702,377.957 328.5,377.5C 331.329,376.253 333.995,374.753 336.5,373C 338.885,372.444 341.218,372.61 343.5,373.5 Z"/></g>
<g><path style="opacity:1" fill="#b2a1ec" d="M 275.5,379.5 C 276.551,380.222 277.218,381.222 277.5,382.5C 275.297,382.396 273.297,381.73 271.5,380.5C 269.023,378.759 266.356,377.259 263.5,376C 262.483,374.951 262.316,373.784 263,372.5C 266.979,375.238 271.145,377.571 275.5,379.5 Z"/></g>
<g><path style="opacity:1" fill="#c8bdec" d="M 287.5,373.5 C 288.791,374.542 288.791,375.708 287.5,377C 284.277,379.062 280.943,380.896 277.5,382.5C 277.218,381.222 276.551,380.222 275.5,379.5C 280.038,378.564 284.038,376.564 287.5,373.5 Z"/></g>
<g><path style="opacity:1" fill="#af9eec" d="M 298.5,374.5 C 302.701,377.1 307.034,379.434 311.5,381.5C 311.672,382.492 311.338,383.158 310.5,383.5C 309.391,383.443 308.391,383.11 307.5,382.5C 304.661,380.58 301.661,378.913 298.5,377.5C 298.5,376.5 298.5,375.5 298.5,374.5 Z"/></g>
<g><path style="opacity:1" fill="#af9deb" d="M 413.5,375.5 C 417.5,377.5 421.5,379.5 425.5,381.5C 426.091,382.151 426.757,382.818 427.5,383.5C 427.043,384.298 426.376,384.631 425.5,384.5C 421.85,382.528 418.184,380.528 414.5,378.5C 413.614,377.675 413.281,376.675 413.5,375.5 Z"/></g>
<g><path style="opacity:1" fill="#ede9f8" d="M 298.5,377.5 C 301.661,378.913 304.661,380.58 307.5,382.5C 307.443,383.609 307.11,384.609 306.5,385.5C 302.967,388.266 298.967,389.933 294.5,390.5C 290.7,388.766 287.034,386.766 283.5,384.5C 282.438,383.425 282.438,382.425 283.5,381.5C 287.878,377.458 292.878,376.125 298.5,377.5 Z"/></g>
<g><path style="opacity:1" fill="#c6bbeb" d="M 322.5,376.5 C 323.525,376.897 323.692,377.563 323,378.5C 319.638,381.015 315.971,383.015 312,384.5C 311.235,384.43 310.735,384.097 310.5,383.5C 311.338,383.158 311.672,382.492 311.5,381.5C 315.36,380.319 319.027,378.652 322.5,376.5 Z"/></g>
<g><path style="opacity:1" fill="#c7bceb" d="M 394.5,379.5 C 394.439,381.592 393.439,383.092 391.5,384C 384.446,387.858 377.446,391.691 370.5,395.5C 370.218,394.222 369.551,393.222 368.5,392.5C 369.873,392.657 371.207,392.49 372.5,392C 379.698,387.568 387.032,383.402 394.5,379.5 Z"/></g>
<g><path style="opacity:1" fill="#af9deb" d="M 327.5,379.5 C 331.598,382.264 335.932,384.597 340.5,386.5C 340.804,387.15 341.137,387.817 341.5,388.5C 339.603,389.652 337.936,389.319 336.5,387.5C 334.062,385.733 331.395,384.399 328.5,383.5C 327.766,382.292 327.433,380.959 327.5,379.5 Z"/></g>
<g><path style="opacity:1" fill="#ece9f8" d="M 328.5,383.5 C 331.395,384.399 334.062,385.733 336.5,387.5C 336.67,388.822 336.337,389.989 335.5,391C 332.048,393.393 328.381,395.226 324.5,396.5C 320.465,394.152 316.465,391.818 312.5,389.5C 311.402,388.603 311.402,387.77 312.5,387C 315.167,385.333 317.833,383.667 320.5,382C 323.322,381.572 325.988,382.072 328.5,383.5 Z"/></g>
<g><path style="opacity:1" fill="#ede9f8" d="M 413.5,390.5 C 409.711,393.56 405.378,395.227 400.5,395.5C 396.7,393.766 393.034,391.766 389.5,389.5C 388.402,388.603 388.402,387.77 389.5,387C 392.893,384.637 396.56,382.804 400.5,381.5C 404.623,383.395 408.623,385.562 412.5,388C 413.252,388.671 413.586,389.504 413.5,390.5 Z"/></g>
<g><path style="opacity:1" fill="#b09eec" d="M 258.5,388.5 C 259.551,389.222 260.218,390.222 260.5,391.5C 257.794,391.312 255.461,390.312 253.5,388.5C 251.11,387.554 248.944,386.221 247,384.5C 246.312,383.668 246.479,383.002 247.5,382.5C 251.034,384.766 254.7,386.766 258.5,388.5 Z"/></g>
<g><path style="opacity:1" fill="#c9bfec" d="M 271.5,382.5 C 272.799,384.153 272.466,385.653 270.5,387C 267.222,388.809 263.889,390.309 260.5,391.5C 260.218,390.222 259.551,389.222 258.5,388.5C 263.704,388.275 268.037,386.275 271.5,382.5 Z"/></g>
<g><path style="opacity:1" fill="#b09eec" d="M 283.5,384.5 C 287.034,386.766 290.7,388.766 294.5,390.5C 295.551,391.222 296.218,392.222 296.5,393.5C 294.297,393.396 292.297,392.73 290.5,391.5C 287.833,389.833 285.167,388.167 282.5,386.5C 282.328,385.508 282.662,384.842 283.5,384.5 Z"/></g>
<g><path style="opacity:1" fill="#ede9f8" d="M 282.5,386.5 C 285.167,388.167 287.833,389.833 290.5,391.5C 290.703,393.39 290.037,394.89 288.5,396C 286.668,396.748 285.001,397.748 283.5,399C 281.527,399.495 279.527,399.662 277.5,399.5C 273.289,397.902 269.622,395.568 266.5,392.5C 269.011,389.887 272.011,387.72 275.5,386C 277.847,385.666 280.181,385.833 282.5,386.5 Z"/></g>
<g><path style="opacity:1" fill="#c8bdec" d="M 306.5,385.5 C 307.645,386.793 307.311,387.959 305.5,389C 302.447,390.527 299.447,392.027 296.5,393.5C 296.218,392.222 295.551,391.222 294.5,390.5C 298.967,389.933 302.967,388.266 306.5,385.5 Z"/></g>
<g><path style="opacity:1" fill="#b09fec" d="M 356.5,385.5 C 360.164,388.335 364.164,390.668 368.5,392.5C 369.551,393.222 370.218,394.222 370.5,395.5C 367.465,395.461 364.798,394.461 362.5,392.5C 360.167,391.167 357.833,389.833 355.5,388.5C 355.263,387.209 355.596,386.209 356.5,385.5 Z"/></g>
<g><path style="opacity:1" fill="#ede9f8" d="M 355.5,388.5 C 357.833,389.833 360.167,391.167 362.5,392.5C 363.167,393.833 363.833,395.167 364.5,396.5C 360.711,399.56 356.378,401.227 351.5,401.5C 347.673,399.754 344.007,397.754 340.5,395.5C 339.402,394.603 339.402,393.77 340.5,393C 343.5,391.333 346.5,389.667 349.5,388C 351.545,387.51 353.545,387.677 355.5,388.5 Z"/></g>
<g><path style="opacity:1" fill="#af9dec" d="M 312.5,389.5 C 316.465,391.818 320.465,394.152 324.5,396.5C 324.631,397.376 324.298,398.043 323.5,398.5C 322.583,397.873 321.583,397.539 320.5,397.5C 317.76,395.44 314.76,393.774 311.5,392.5C 311.263,391.209 311.596,390.209 312.5,389.5 Z"/></g>
<g><path style="opacity:1" fill="#ae9ceb" d="M 389.5,389.5 C 393.034,391.766 396.7,393.766 400.5,395.5C 401.562,396.575 401.562,397.575 400.5,398.5C 399.583,397.873 398.583,397.539 397.5,397.5C 395.664,395.412 393.331,394.079 390.5,393.5C 389.859,392.518 389.193,391.518 388.5,390.5C 388.624,389.893 388.957,389.56 389.5,389.5 Z"/></g>
<g><path style="opacity:1" fill="#ede9f8" d="M 311.5,392.5 C 314.76,393.774 317.76,395.44 320.5,397.5C 320.489,399.017 319.823,400.184 318.5,401C 315.46,403.22 312.127,404.72 308.5,405.5C 304.527,403.513 300.527,401.513 296.5,399.5C 295.697,398.577 295.53,397.577 296,396.5C 298.583,395.126 301.083,393.626 303.5,392C 306.221,391.398 308.887,391.565 311.5,392.5 Z"/></g>
<g><path style="opacity:1" fill="#ede9f8" d="M 390.5,393.5 C 393.331,394.079 395.664,395.412 397.5,397.5C 397.489,399.017 396.823,400.184 395.5,401C 392.46,403.22 389.127,404.72 385.5,405.5C 381.034,403.434 376.701,401.1 372.5,398.5C 374.475,395.654 377.141,393.487 380.5,392C 384.103,391.157 387.436,391.657 390.5,393.5 Z"/></g>
<g><path style="opacity:1" fill="#af9eec" d="M 243.5,398.5 C 243.672,399.492 243.338,400.158 242.5,400.5C 241.391,400.443 240.391,400.11 239.5,399.5C 237.058,397.774 234.391,396.274 231.5,395C 230.483,393.951 230.316,392.784 231,391.5C 234.979,394.238 239.145,396.571 243.5,398.5 Z"/></g>
<g><path style="opacity:1" fill="#c6bbeb" d="M 254.5,393.5 C 255.525,393.897 255.692,394.563 255,395.5C 251.638,398.015 247.971,400.015 244,401.5C 243.235,401.43 242.735,401.097 242.5,400.5C 243.338,400.158 243.672,399.492 243.5,398.5C 247.36,397.319 251.027,395.652 254.5,393.5 Z"/></g>
<g><path style="opacity:1" fill="#b1a0ec" d="M 266.5,392.5 C 269.622,395.568 273.289,397.902 277.5,399.5C 278.091,400.151 278.757,400.818 279.5,401.5C 276.857,402.367 274.523,401.7 272.5,399.5C 270.5,398.5 268.5,397.5 266.5,396.5C 265.314,395.039 265.314,393.705 266.5,392.5 Z"/></g>
<g><path style="opacity:1" fill="#ede9f8" d="M 266.5,396.5 C 268.5,397.5 270.5,398.5 272.5,399.5C 273.038,401.117 273.371,402.784 273.5,404.5C 270.45,406.692 267.117,408.358 263.5,409.5C 258.68,407.926 254.347,405.593 250.5,402.5C 250.389,401.883 250.056,401.383 249.5,401C 252.5,399.333 255.5,397.667 258.5,396C 261.221,395.398 263.887,395.565 266.5,396.5 Z"/></g>
<g><path style="opacity:1" fill="#af9deb" d="M 340.5,395.5 C 344.007,397.754 347.673,399.754 351.5,401.5C 352.091,402.151 352.757,402.818 353.5,403.5C 351.905,404.434 350.239,404.434 348.5,403.5C 345.869,401.847 343.203,400.181 340.5,398.5C 339.375,397.348 339.375,396.348 340.5,395.5 Z"/></g>
<g><path style="opacity:1" fill="#ede9f8" d="M 340.5,398.5 C 343.203,400.181 345.869,401.847 348.5,403.5C 348.489,405.017 347.823,406.184 346.5,407C 343.46,409.22 340.127,410.72 336.5,411.5C 332.136,409.656 328.136,407.323 324.5,404.5C 324.389,403.883 324.056,403.383 323.5,403C 326.833,401 330.167,399 333.5,397C 335.922,396.865 338.255,397.365 340.5,398.5 Z"/></g>
<g><path style="opacity:1" fill="#ae9ceb" d="M 296.5,399.5 C 300.527,401.513 304.527,403.513 308.5,405.5C 307.789,407.842 306.456,408.175 304.5,406.5C 302.062,404.733 299.395,403.399 296.5,402.5C 295.375,401.348 295.375,400.348 296.5,399.5 Z"/></g>
<g><path style="opacity:1" fill="#af9eec" d="M 372.5,398.5 C 376.701,401.1 381.034,403.434 385.5,405.5C 385.53,406.497 385.03,407.164 384,407.5C 382.415,406.956 380.915,406.289 379.5,405.5C 377.167,404.167 374.833,402.833 372.5,401.5C 372.5,400.5 372.5,399.5 372.5,398.5 Z"/></g>
<g><path style="opacity:1" fill="#ede9f8" d="M 296.5,402.5 C 299.395,403.399 302.062,404.733 304.5,406.5C 301.692,411.415 297.359,414.081 291.5,414.5C 287.164,412.668 283.164,410.335 279.5,407.5C 281.996,404.866 284.996,402.7 288.5,401C 291.438,400.288 294.104,400.788 296.5,402.5 Z"/></g>
<g><path style="opacity:1" fill="#b09fec" d="M 226.5,407.5 C 227.551,408.222 228.218,409.222 228.5,410.5C 226.784,410.371 225.117,410.038 223.5,409.5C 220.821,407.399 217.988,405.399 215,403.5C 214.312,402.668 214.479,402.002 215.5,401.5C 219.184,403.528 222.85,405.528 226.5,407.5 Z"/></g>
<g><path style="opacity:1" fill="#eeeaf8" d="M 372.5,401.5 C 374.833,402.833 377.167,404.167 379.5,405.5C 379.577,406.75 380.244,407.583 381.5,408C 380.944,408.383 380.611,408.883 380.5,409.5C 355.798,423.848 331.131,438.182 306.5,452.5C 301.162,450.999 296.162,448.665 291.5,445.5C 291.414,444.504 291.748,443.671 292.5,443C 314.727,430.392 336.727,417.559 358.5,404.5C 360.78,403.36 363.114,402.193 365.5,401C 367.885,400.444 370.218,400.61 372.5,401.5 Z"/></g>
<g><path style="opacity:1" fill="#c7bdec" d="M 238.5,402.5 C 239.043,402.56 239.376,402.893 239.5,403.5C 236.321,406.59 232.654,408.923 228.5,410.5C 228.218,409.222 227.551,408.222 226.5,407.5C 230.967,406.933 234.967,405.266 238.5,402.5 Z"/></g>
<g><path style="opacity:1" fill="#b09fec" d="M 250.5,402.5 C 254.347,405.593 258.68,407.926 263.5,409.5C 263.5,410.833 262.833,411.5 261.5,411.5C 259.938,411.267 258.605,410.6 257.5,409.5C 254.807,408.153 252.14,406.82 249.5,405.5C 249.263,404.209 249.596,403.209 250.5,402.5 Z"/></g>
<g><path style="opacity:1" fill="#c7bdec" d="M 261.5,411.5 C 262.833,411.5 263.5,410.833 263.5,409.5C 267.117,408.358 270.45,406.692 273.5,404.5C 275.54,403.525 275.873,404.192 274.5,406.5C 270.956,408.771 267.29,410.771 263.5,412.5C 262.584,412.457 261.917,412.124 261.5,411.5 Z"/></g>
<g><path style="opacity:1" fill="#ede9f8" d="M 249.5,405.5 C 252.14,406.82 254.807,408.153 257.5,409.5C 257.833,410.833 258.167,412.167 258.5,413.5C 254.429,416.043 250.096,417.709 245.5,418.5C 241.833,416.5 238.167,414.5 234.5,412.5C 233.438,411.425 233.438,410.425 234.5,409.5C 237.329,408.253 239.995,406.753 242.5,405C 244.885,404.444 247.218,404.61 249.5,405.5 Z"/></g>
<g><path style="opacity:1" fill="#af9deb" d="M 324.5,404.5 C 328.136,407.323 332.136,409.656 336.5,411.5C 335.789,413.842 334.456,414.175 332.5,412.5C 329.661,410.58 326.661,408.913 323.5,407.5C 323.263,406.209 323.596,405.209 324.5,404.5 Z"/></g>
<g><path style="opacity:1" fill="#ede9f8" d="M 323.5,407.5 C 326.661,408.913 329.661,410.58 332.5,412.5C 329.947,417.125 325.947,419.791 320.5,420.5C 316.272,418.934 312.272,416.934 308.5,414.5C 307.438,413.425 307.438,412.425 308.5,411.5C 311.039,409.8 313.705,408.3 316.5,407C 318.885,406.444 321.218,406.61 323.5,407.5 Z"/></g>
<g><path style="opacity:1" fill="#b19fec" d="M 279.5,407.5 C 283.164,410.335 287.164,412.668 291.5,414.5C 292.562,415.575 292.562,416.575 291.5,417.5C 289.473,416.487 287.473,415.487 285.5,414.5C 283.33,412.914 280.996,411.58 278.5,410.5C 278.263,409.209 278.596,408.209 279.5,407.5 Z"/></g>
<g><path style="opacity:1" fill="#c7bceb" d="M 380.5,409.5 C 381.645,410.793 381.311,411.959 379.5,413C 355.612,427.061 331.612,440.894 307.5,454.5C 307.672,453.508 307.338,452.842 306.5,452.5C 331.131,438.182 355.798,423.848 380.5,409.5 Z"/></g>
<g><path style="opacity:1" fill="#ede9f8" d="M 278.5,410.5 C 280.996,411.58 283.33,412.914 285.5,414.5C 286.357,415.802 286.857,417.135 287,418.5C 283.689,420.903 280.189,422.903 276.5,424.5C 272.034,422.434 267.701,420.1 263.5,417.5C 262.402,416.603 262.402,415.77 263.5,415C 266.661,413.587 269.661,411.92 272.5,410C 274.545,409.51 276.545,409.677 278.5,410.5 Z"/></g>
<g><path style="opacity:1" fill="#ae9deb" d="M 210.5,416.5 C 211.11,417.391 211.443,418.391 211.5,419.5C 208.978,418.989 206.645,417.989 204.5,416.5C 203.027,415.26 201.36,414.26 199.5,413.5C 198.417,412.635 198.251,411.635 199,410.5C 202.494,413.163 206.327,415.163 210.5,416.5 Z"/></g>
<g><path style="opacity:1" fill="#c8beec" d="M 222.5,411.5 C 223.776,412.386 223.776,413.386 222.5,414.5C 219.188,416.99 215.522,418.657 211.5,419.5C 211.443,418.391 211.11,417.391 210.5,416.5C 214.918,415.961 218.918,414.295 222.5,411.5 Z"/></g>
<g><path style="opacity:1" fill="#b09eec" d="M 234.5,412.5 C 238.167,414.5 241.833,416.5 245.5,418.5C 246.551,419.222 247.218,420.222 247.5,421.5C 244.978,420.989 242.645,419.989 240.5,418.5C 238.5,417.5 236.5,416.5 234.5,415.5C 233.375,414.348 233.375,413.348 234.5,412.5 Z"/></g>
<g><path style="opacity:1" fill="#ede9f8" d="M 234.5,415.5 C 236.5,416.5 238.5,417.5 240.5,418.5C 241.167,419.833 241.833,421.167 242.5,422.5C 238.701,424.981 234.701,426.981 230.5,428.5C 226.007,426.421 221.674,424.088 217.5,421.5C 217.414,420.504 217.748,419.671 218.5,419C 221.167,417.333 223.833,415.667 226.5,414C 229.438,413.288 232.104,413.788 234.5,415.5 Z"/></g>
<g><path style="opacity:1" fill="#c7bcec" d="M 258.5,413.5 C 256.067,417.564 252.401,420.231 247.5,421.5C 247.218,420.222 246.551,419.222 245.5,418.5C 250.096,417.709 254.429,416.043 258.5,413.5 Z"/></g>
<g><path style="opacity:1" fill="#af9eeb" d="M 308.5,414.5 C 312.272,416.934 316.272,418.934 320.5,420.5C 321.85,421.824 321.683,422.824 320,423.5C 318.862,423.011 317.695,422.678 316.5,422.5C 314.206,420.347 311.54,418.68 308.5,417.5C 307.375,416.348 307.375,415.348 308.5,414.5 Z"/></g>
<g><path style="opacity:1" fill="#ece9f8" d="M 308.5,417.5 C 311.54,418.68 314.206,420.347 316.5,422.5C 316.586,423.496 316.252,424.329 315.5,425C 312.09,427.372 308.423,429.205 304.5,430.5C 300.007,428.421 295.674,426.088 291.5,423.5C 291.511,421.983 292.177,420.816 293.5,420C 295.996,418.92 298.33,417.586 300.5,416C 303.322,415.572 305.988,416.072 308.5,417.5 Z"/></g>
<g><path style="opacity:1" fill="#af9eeb" d="M 263.5,417.5 C 267.701,420.1 272.034,422.434 276.5,424.5C 276.53,425.497 276.03,426.164 275,426.5C 273.862,426.011 272.695,425.678 271.5,425.5C 269.664,423.412 267.331,422.079 264.5,421.5C 263.859,420.518 263.193,419.518 262.5,418.5C 262.624,417.893 262.957,417.56 263.5,417.5 Z"/></g>
<g><path style="opacity:1" fill="#ede9f8" d="M 264.5,421.5 C 267.331,422.079 269.664,423.412 271.5,425.5C 269.255,429.819 265.588,432.486 260.5,433.5C 255.724,431.946 251.39,429.613 247.5,426.5C 251.709,419.896 257.376,418.23 264.5,421.5 Z"/></g>
<g><path style="opacity:1" fill="#b1a0ec" d="M 196.5,426.5 C 196.179,428.048 195.179,428.715 193.5,428.5C 192.609,427.89 191.609,427.557 190.5,427.5C 187.898,425.858 185.231,424.192 182.5,422.5C 181.167,421.5 181.167,420.5 182.5,419.5C 186.737,422.748 191.404,425.081 196.5,426.5 Z"/></g>
<g><path style="opacity:1" fill="#c8bdec" d="M 206.5,420.5 C 207.097,420.735 207.43,421.235 207.5,422C 204.547,424.816 201.213,427.149 197.5,429C 195.934,429.765 194.601,429.598 193.5,428.5C 195.179,428.715 196.179,428.048 196.5,426.5C 200.201,424.988 203.534,422.988 206.5,420.5 Z"/></g>
<g><path style="opacity:1" fill="#ae9deb" d="M 217.5,421.5 C 221.674,424.088 226.007,426.421 230.5,428.5C 230.672,429.492 230.338,430.158 229.5,430.5C 228.391,430.443 227.391,430.11 226.5,429.5C 223.76,427.44 220.76,425.774 217.5,424.5C 217.5,423.5 217.5,422.5 217.5,421.5 Z"/></g>
<g><path style="opacity:1" fill="#d2c9ef" d="M 364.5,396.5 C 365.776,397.386 365.776,398.386 364.5,399.5C 361.961,401.2 359.295,402.7 356.5,404C 357.094,404.464 357.761,404.631 358.5,404.5C 336.727,417.559 314.727,430.392 292.5,443C 291.748,443.671 291.414,444.504 291.5,445.5C 291.5,446.5 291.5,447.5 291.5,448.5C 289.874,448.062 288.207,447.728 286.5,447.5C 283.852,448.463 281.186,449.463 278.5,450.5C 276.784,450.629 275.117,450.962 273.5,451.5C 273.218,450.222 272.551,449.222 271.5,448.5C 275.316,447.599 278.983,446.099 282.5,444C 283.337,442.989 283.67,441.822 283.5,440.5C 284.695,440.678 285.862,441.011 287,441.5C 288.03,441.164 288.53,440.497 288.5,439.5C 293.647,438.28 297.647,435.613 300.5,431.5C 302.456,433.175 303.789,432.842 304.5,430.5C 308.423,429.205 312.09,427.372 315.5,425C 316.252,424.329 316.586,423.496 316.5,422.5C 317.695,422.678 318.862,423.011 320,423.5C 321.683,422.824 321.85,421.824 320.5,420.5C 325.947,419.791 329.947,417.125 332.5,412.5C 334.456,414.175 335.789,413.842 336.5,411.5C 340.127,410.72 343.46,409.22 346.5,407C 347.823,406.184 348.489,405.017 348.5,403.5C 350.239,404.434 351.905,404.434 353.5,403.5C 352.757,402.818 352.091,402.151 351.5,401.5C 356.378,401.227 360.711,399.56 364.5,396.5 Z"/></g>
<g><path style="opacity:1" fill="#ede9f8" d="M 217.5,424.5 C 220.76,425.774 223.76,427.44 226.5,429.5C 226.443,430.609 226.11,431.609 225.5,432.5C 222.027,434.652 218.36,436.319 214.5,437.5C 210.272,435.934 206.272,433.934 202.5,431.5C 201.697,430.577 201.53,429.577 202,428.5C 204.583,427.126 207.083,425.626 209.5,424C 212.221,423.398 214.887,423.565 217.5,424.5 Z"/></g>
<g><path style="opacity:1" fill="#af9eeb" d="M 291.5,423.5 C 295.674,426.088 300.007,428.421 304.5,430.5C 303.789,432.842 302.456,433.175 300.5,431.5C 297.661,429.58 294.661,427.913 291.5,426.5C 291.5,425.5 291.5,424.5 291.5,423.5 Z"/></g>
<g><path style="opacity:1" fill="#c6bbec" d="M 242.5,422.5 C 242.67,423.822 242.337,424.989 241.5,426C 238.339,427.413 235.339,429.08 232.5,431C 231.251,431.74 230.251,431.573 229.5,430.5C 230.338,430.158 230.672,429.492 230.5,428.5C 234.701,426.981 238.701,424.981 242.5,422.5 Z"/></g>
<g><path style="opacity:1" fill="#ede9f8" d="M 291.5,426.5 C 294.661,427.913 297.661,429.58 300.5,431.5C 297.647,435.613 293.647,438.28 288.5,439.5C 283.932,437.597 279.598,435.264 275.5,432.5C 275.414,431.504 275.748,430.671 276.5,430C 279.5,428.333 282.5,426.667 285.5,425C 287.689,424.678 289.689,425.178 291.5,426.5 Z"/></g>
<g><path style="opacity:1" fill="#b09fec" d="M 247.5,426.5 C 251.39,429.613 255.724,431.946 260.5,433.5C 260.719,434.675 260.386,435.675 259.5,436.5C 258.14,435.82 256.807,435.153 255.5,434.5C 252.661,432.58 249.661,430.913 246.5,429.5C 246.263,428.209 246.596,427.209 247.5,426.5 Z"/></g>
<g><path style="opacity:1" fill="#ede9f8" d="M 246.5,429.5 C 249.661,430.913 252.661,432.58 255.5,434.5C 255.67,435.822 255.337,436.989 254.5,438C 250.733,440.394 246.733,441.894 242.5,442.5C 238.7,440.766 235.034,438.766 231.5,436.5C 230.294,435.12 230.627,433.953 232.5,433C 234.996,431.92 237.33,430.586 239.5,429C 241.885,428.444 244.218,428.61 246.5,429.5 Z"/></g>
<g><path style="opacity:1" fill="#b09eec" d="M 165.5,428.5 C 169.701,431.1 174.034,433.434 178.5,435.5C 179.11,436.391 179.443,437.391 179.5,438.5C 174.952,436.893 170.619,434.726 166.5,432C 165.663,430.989 165.33,429.822 165.5,428.5 Z"/></g>
<g><path style="opacity:1" fill="#c7bceb" d="M 190.5,430.5 C 188.067,434.564 184.401,437.231 179.5,438.5C 179.443,437.391 179.11,436.391 178.5,435.5C 182.677,434.416 186.677,432.75 190.5,430.5 Z"/></g>
<g><path style="opacity:1" fill="#ae9deb" d="M 202.5,431.5 C 206.272,433.934 210.272,435.934 214.5,437.5C 214.5,438.833 213.833,439.5 212.5,439.5C 211.609,438.89 210.609,438.557 209.5,438.5C 207.337,436.917 205.004,435.584 202.5,434.5C 201.375,433.348 201.375,432.348 202.5,431.5 Z"/></g>
<g><path style="opacity:1" fill="#ede9f8" d="M 202.5,434.5 C 205.004,435.584 207.337,436.917 209.5,438.5C 207.369,443.591 203.369,446.258 197.5,446.5C 193.164,444.668 189.164,442.335 185.5,439.5C 189.963,433.421 195.63,431.754 202.5,434.5 Z"/></g>
<g><path style="opacity:0.972" fill="#7763bd" d="M 146.5,432.5 C 147.922,433.925 149.589,434.925 151.5,435.5C 163.164,443.001 175.164,450.001 187.5,456.5C 196.5,462.336 205.833,467.669 215.5,472.5C 227.804,480.323 240.471,487.657 253.5,494.5C 253.5,499.167 253.5,503.833 253.5,508.5C 217.648,488.822 182.148,468.489 147,447.5C 146.501,442.511 146.334,437.511 146.5,432.5 Z"/></g>
<g><path style="opacity:1" fill="#c6bbeb" d="M 225.5,432.5 C 226.525,432.897 226.692,433.563 226,434.5C 221.926,438.155 217.426,439.821 212.5,439.5C 213.833,439.5 214.5,438.833 214.5,437.5C 218.36,436.319 222.027,434.652 225.5,432.5 Z"/></g>
<g><path style="opacity:1" fill="#b09feb" d="M 275.5,432.5 C 279.598,435.264 283.932,437.597 288.5,439.5C 288.53,440.497 288.03,441.164 287,441.5C 285.862,441.011 284.695,440.678 283.5,440.5C 280.76,438.44 277.76,436.774 274.5,435.5C 274.263,434.209 274.596,433.209 275.5,432.5 Z"/></g>
<g><path style="opacity:1" fill="#ece9f8" d="M 274.5,435.5 C 277.76,436.774 280.76,438.44 283.5,440.5C 283.67,441.822 283.337,442.989 282.5,444C 278.983,446.099 275.316,447.599 271.5,448.5C 267.164,446.668 263.164,444.335 259.5,441.5C 259.414,440.504 259.748,439.671 260.5,439C 262.996,437.92 265.33,436.586 267.5,435C 269.885,434.444 272.218,434.61 274.5,435.5 Z"/></g>
<g><path style="opacity:1" fill="#af9eec" d="M 231.5,436.5 C 235.034,438.766 238.7,440.766 242.5,442.5C 243.11,443.391 243.443,444.391 243.5,445.5C 242.167,445.167 240.833,444.833 239.5,444.5C 237.664,442.412 235.331,441.079 232.5,440.5C 231.859,439.518 231.193,438.518 230.5,437.5C 230.624,436.893 230.957,436.56 231.5,436.5 Z"/></g>
<g><path style="opacity:1" fill="#edeaf8" d="M 232.5,440.5 C 235.331,441.079 237.664,442.412 239.5,444.5C 239.5,445.167 239.5,445.833 239.5,446.5C 233.363,449.736 227.363,453.236 221.5,457C 219.866,457.494 218.199,457.66 216.5,457.5C 212.527,455.513 208.527,453.513 204.5,451.5C 204.511,449.983 205.177,448.816 206.5,448C 212.331,444.919 217.998,441.585 223.5,438C 224.833,437.333 226.167,437.333 227.5,438C 229.078,439.094 230.745,439.928 232.5,440.5 Z"/></g>
<g><path style="opacity:1" fill="#b19fec" d="M 185.5,439.5 C 189.164,442.335 193.164,444.668 197.5,446.5C 198.625,447.652 198.625,448.652 197.5,449.5C 193.394,447.612 189.394,445.446 185.5,443C 184.209,441.708 184.209,440.542 185.5,439.5 Z"/></g>
<g><path style="opacity:1" fill="#b09feb" d="M 259.5,441.5 C 263.164,444.335 267.164,446.668 271.5,448.5C 272.551,449.222 273.218,450.222 273.5,451.5C 271.142,451.747 269.142,451.081 267.5,449.5C 264.833,448.167 262.167,446.833 259.5,445.5C 258.314,444.039 258.314,442.705 259.5,441.5 Z"/></g>
<g><path style="opacity:1" fill="#b09feb" d="M 291.5,445.5 C 296.162,448.665 301.162,450.999 306.5,452.5C 307.338,452.842 307.672,453.508 307.5,454.5C 305.025,455.687 302.691,455.353 300.5,453.5C 297.661,451.58 294.661,449.913 291.5,448.5C 291.5,447.5 291.5,446.5 291.5,445.5 Z"/></g>
<g><path style="opacity:1" fill="#dcd5f2" d="M 354.5,362.5 C 351.564,364.308 348.564,366.141 345.5,368C 344.748,368.671 344.414,369.504 344.5,370.5C 343.596,371.209 343.263,372.209 343.5,373.5C 341.218,372.61 338.885,372.444 336.5,373C 333.995,374.753 331.329,376.253 328.5,377.5C 327.702,377.957 327.369,378.624 327.5,379.5C 327.433,380.959 327.766,382.292 328.5,383.5C 325.988,382.072 323.322,381.572 320.5,382C 317.833,383.667 315.167,385.333 312.5,387C 311.402,387.77 311.402,388.603 312.5,389.5C 311.596,390.209 311.263,391.209 311.5,392.5C 308.887,391.565 306.221,391.398 303.5,392C 301.083,393.626 298.583,395.126 296,396.5C 295.53,397.577 295.697,398.577 296.5,399.5C 295.375,400.348 295.375,401.348 296.5,402.5C 294.104,400.788 291.438,400.288 288.5,401C 284.996,402.7 281.996,404.866 279.5,407.5C 278.596,408.209 278.263,409.209 278.5,410.5C 276.545,409.677 274.545,409.51 272.5,410C 269.661,411.92 266.661,413.587 263.5,415C 262.402,415.77 262.402,416.603 263.5,417.5C 262.957,417.56 262.624,417.893 262.5,418.5C 263.193,419.518 263.859,420.518 264.5,421.5C 257.376,418.23 251.709,419.896 247.5,426.5C 246.596,427.209 246.263,428.209 246.5,429.5C 244.218,428.61 241.885,428.444 239.5,429C 237.33,430.586 234.996,431.92 232.5,433C 230.627,433.953 230.294,435.12 231.5,436.5C 230.957,436.56 230.624,436.893 230.5,437.5C 231.193,438.518 231.859,439.518 232.5,440.5C 230.745,439.928 229.078,439.094 227.5,438C 226.167,437.333 224.833,437.333 223.5,438C 217.998,441.585 212.331,444.919 206.5,448C 205.177,448.816 204.511,449.983 204.5,451.5C 204.281,452.675 204.614,453.675 205.5,454.5C 209.769,457.64 214.436,459.64 219.5,460.5C 225.806,457.012 232.14,453.512 238.5,450C 239.337,448.989 239.67,447.822 239.5,446.5C 239.5,445.833 239.5,445.167 239.5,444.5C 240.833,444.833 242.167,445.167 243.5,445.5C 246.426,444.539 249.426,443.873 252.5,443.5C 243.394,449.226 234.061,454.726 224.5,460C 223.402,460.77 223.402,461.603 224.5,462.5C 223.903,462.735 223.57,463.235 223.5,464C 224.056,465.011 224.722,465.844 225.5,466.5C 222.506,469 219.173,471 215.5,472.5C 205.833,467.669 196.5,462.336 187.5,456.5C 190.447,455.027 193.447,453.527 196.5,452C 197.252,451.329 197.586,450.496 197.5,449.5C 198.625,448.652 198.625,447.652 197.5,446.5C 203.369,446.258 207.369,443.591 209.5,438.5C 210.609,438.557 211.609,438.89 212.5,439.5C 217.426,439.821 221.926,438.155 226,434.5C 226.692,433.563 226.525,432.897 225.5,432.5C 226.11,431.609 226.443,430.609 226.5,429.5C 227.391,430.11 228.391,430.443 229.5,430.5C 230.251,431.573 231.251,431.74 232.5,431C 235.339,429.08 238.339,427.413 241.5,426C 242.337,424.989 242.67,423.822 242.5,422.5C 241.833,421.167 241.167,419.833 240.5,418.5C 242.645,419.989 244.978,420.989 247.5,421.5C 252.401,420.231 256.067,417.564 258.5,413.5C 258.167,412.167 257.833,410.833 257.5,409.5C 258.605,410.6 259.938,411.267 261.5,411.5C 261.917,412.124 262.584,412.457 263.5,412.5C 267.29,410.771 270.956,408.771 274.5,406.5C 275.873,404.192 275.54,403.525 273.5,404.5C 273.371,402.784 273.038,401.117 272.5,399.5C 274.523,401.7 276.857,402.367 279.5,401.5C 278.757,400.818 278.091,400.151 277.5,399.5C 279.527,399.662 281.527,399.495 283.5,399C 285.001,397.748 286.668,396.748 288.5,396C 290.037,394.89 290.703,393.39 290.5,391.5C 292.297,392.73 294.297,393.396 296.5,393.5C 299.447,392.027 302.447,390.527 305.5,389C 307.311,387.959 307.645,386.793 306.5,385.5C 307.11,384.609 307.443,383.609 307.5,382.5C 308.391,383.11 309.391,383.443 310.5,383.5C 310.735,384.097 311.235,384.43 312,384.5C 315.971,383.015 319.638,381.015 323,378.5C 323.692,377.563 323.525,376.897 322.5,376.5C 323.11,375.609 323.443,374.609 323.5,373.5C 324.833,373.833 326.167,374.167 327.5,374.5C 331.362,373.572 335.029,372.072 338.5,370C 339.337,368.989 339.67,367.822 339.5,366.5C 339.5,365.5 339.5,364.5 339.5,363.5C 341.142,365.081 343.142,365.747 345.5,365.5C 348.208,363.647 351.208,362.647 354.5,362.5 Z"/></g>
<g><path style="opacity:1" fill="#c8bdec" d="M 239.5,446.5 C 239.67,447.822 239.337,448.989 238.5,450C 232.14,453.512 225.806,457.012 219.5,460.5C 218.9,459.1 217.9,458.1 216.5,457.5C 218.199,457.66 219.866,457.494 221.5,457C 227.363,453.236 233.363,449.736 239.5,446.5 Z"/></g>
<g><path style="opacity:1" fill="#ece8f7" d="M 252.5,443.5 C 255.108,443.4 257.442,444.067 259.5,445.5C 262.167,446.833 264.833,448.167 267.5,449.5C 267.5,450.5 267.5,451.5 267.5,452.5C 257.3,458.433 246.967,464.1 236.5,469.5C 232.465,467.152 228.465,464.818 224.5,462.5C 223.402,461.603 223.402,460.77 224.5,460C 234.061,454.726 243.394,449.226 252.5,443.5 Z"/></g>
<g><path style="opacity:1" fill="#ede9f8" d="M 291.5,448.5 C 294.661,449.913 297.661,451.58 300.5,453.5C 300.489,455.017 299.823,456.184 298.5,457C 295.46,459.22 292.127,460.72 288.5,461.5C 284.272,459.934 280.272,457.934 276.5,455.5C 276.196,454.85 275.863,454.183 275.5,453.5C 276.77,452.712 277.77,451.712 278.5,450.5C 281.186,449.463 283.852,448.463 286.5,447.5C 288.207,447.728 289.874,448.062 291.5,448.5 Z"/></g>
<g><path style="opacity:1" fill="#af9eeb" d="M 204.5,451.5 C 208.527,453.513 212.527,455.513 216.5,457.5C 217.9,458.1 218.9,459.1 219.5,460.5C 214.436,459.64 209.769,457.64 205.5,454.5C 204.614,453.675 204.281,452.675 204.5,451.5 Z"/></g>
<g><path style="opacity:1" fill="#c7bdec" d="M 267.5,452.5 C 268.645,453.793 268.311,454.959 266.5,456C 258.5,460.667 250.5,465.333 242.5,470C 240.655,471.128 238.655,471.628 236.5,471.5C 236.5,470.833 236.5,470.167 236.5,469.5C 246.967,464.1 257.3,458.433 267.5,452.5 Z"/></g>
<g><path style="opacity:1" fill="#af9eeb" d="M 276.5,455.5 C 280.272,457.934 284.272,459.934 288.5,461.5C 288.804,462.15 289.137,462.817 289.5,463.5C 287.383,464.469 285.383,464.136 283.5,462.5C 280.833,460.833 278.167,459.167 275.5,457.5C 275.328,456.508 275.662,455.842 276.5,455.5 Z"/></g>
<g><path style="opacity:1" fill="#ede9f8" d="M 275.5,457.5 C 278.167,459.167 280.833,460.833 283.5,462.5C 283.703,464.39 283.037,465.89 281.5,467C 278.439,469.035 275.105,470.201 271.5,470.5C 267.164,468.668 263.164,466.335 259.5,463.5C 263.54,458.15 268.873,456.15 275.5,457.5 Z"/></g>
<g><path style="opacity:1" fill="#ae9ceb" d="M 224.5,462.5 C 228.465,464.818 232.465,467.152 236.5,469.5C 236.5,470.167 236.5,470.833 236.5,471.5C 232.684,470.091 229.017,468.424 225.5,466.5C 224.722,465.844 224.056,465.011 223.5,464C 223.57,463.235 223.903,462.735 224.5,462.5 Z"/></g>
<g><path style="opacity:1" fill="#b09fec" d="M 259.5,463.5 C 263.164,466.335 267.164,468.668 271.5,470.5C 272.85,471.824 272.683,472.824 271,473.5C 269.235,472.368 267.402,471.368 265.5,470.5C 263.5,469.5 261.5,468.5 259.5,467.5C 258.314,466.039 258.314,464.705 259.5,463.5 Z"/></g>
<g><path style="opacity:1" fill="#ede9f8" d="M 259.5,467.5 C 261.5,468.5 263.5,469.5 265.5,470.5C 267.889,472.369 267.889,474.203 265.5,476C 262.46,478.22 259.127,479.72 255.5,480.5C 251.5,478.167 247.5,475.833 243.5,473.5C 243.389,472.883 243.056,472.383 242.5,472C 245.833,470 249.167,468 252.5,466C 255.095,465.4 257.429,465.9 259.5,467.5 Z"/></g>
<g><path style="opacity:1" fill="#af9deb" d="M 243.5,473.5 C 247.5,475.833 251.5,478.167 255.5,480.5C 255.631,481.376 255.298,482.043 254.5,482.5C 250.673,480.754 247.007,478.754 243.5,476.5C 242.224,475.386 242.224,474.386 243.5,473.5 Z"/></g>
<g><path style="opacity:0.983" fill="#8c79d1" d="M 253.5,494.5 C 255.5,494.5 257.5,494.5 259.5,494.5C 260.485,498.634 260.818,502.968 260.5,507.5C 258.393,508.468 256.059,508.802 253.5,508.5C 253.5,503.833 253.5,499.167 253.5,494.5 Z"/></g>
</svg>
